<?xml version="1.0" encoding="UTF-8" standalone="no"?>
<!-- Created with Inkscape (http://www.inkscape.org/) -->

<svg
   version="1.1"
   id="svg1"
   width="2232"
   height="2230"
   viewBox="0 0 2232 2230"
   xmlns="http://www.w3.org/2000/svg"
   xmlns:svg="http://www.w3.org/2000/svg">
  <defs
     id="defs1" />
  <g
     id="g1">
    <path
       style="fill:#000000"
       d="m 455.5,1912 c -19.30066,-19.25 -34.84721,-35 -34.54789,-35 0.29933,0 -45.48821,-46.0341 -101.75008,-102.298 -78.18305,-78.1858 -102.14037,-102.6991 -101.64118,-104 0.61434,-1.6009 53.99485,-1.702 898.93915,-1.702 818.1969,0 898.3401,0.141 898.893,1.5818 0.3339,0.87 0.607,46.3929 0.607,101.1621 0,90.6875 -0.1508,100.0588 -1.689,104.9385 -1.4659,4.6504 -3.2163,6.8519 -13.25,16.665 -45.9417,44.9314 -103.3998,62.6334 -160.561,49.4665 -34.4103,-7.9262 -71.1291,-30.5907 -97.3345,-60.0791 l -4.2346,-4.7651 -8.7155,9.182 c -33.3001,35.0828 -73.3795,55.4942 -115.9654,59.0585 -53.0527,4.4402 -102.4033,-15.4426 -143.0282,-57.6246 l -10.2782,-10.6721 -2.6333,3.2933 c -5.9002,7.3787 -21.8294,22.1992 -31.8832,29.6639 -26.4226,19.6183 -53.7551,31.1072 -82.4271,34.6471 -54.5912,6.74 -104.6791,-11.9027 -147.584,-54.9305 l -12.084,-12.1186 -10.416,10.5804 c -27.0919,27.5195 -59.034,46.3058 -91.416,53.7648 -29.3489,6.7604 -60.5983,5.1999 -90,-4.4944 -25.62451,-8.4489 -58.91245,-30.5962 -78.60112,-52.2953 l -7.16183,-7.8932 -10.37133,10.8234 c -11.98077,12.5029 -19.97796,19.2513 -33.57764,28.3345 -18.23546,12.1793 -35.319,19.9148 -54.52829,24.6905 -31.43945,7.8162 -64.03454,6.3599 -94.25979,-4.2115 -27.03216,-9.4546 -60.23926,-32.4164 -80.32934,-55.5457 l -3.7157,-4.2778 -8.72748,9.1946 c -19.9267,20.9934 -44.39138,38.0008 -69.51999,48.3292 C 536.1054,1941.8809 511.08147,1947 495.33547,1947 h -4.74336 z"
       id="path1" />
  </g>
</svg>
