<?xml version="1.0" encoding="UTF-8" standalone="no"?>
<!-- Created with Inkscape (http://www.inkscape.org/) -->

<svg
   version="1.1"
   id="svg1"
   width="2232"
   height="2230"
   viewBox="0 0 2232 2230"
   xmlns="http://www.w3.org/2000/svg"
   xmlns:svg="http://www.w3.org/2000/svg">
  <defs
     id="defs1" />
  <g
     id="g1">
    <path
       style="fill:#000000"
       d="m 6,1808 v -415 h 105.63647 105.63647 l -0.7027,-10.4903 c -1.77324,-26.4718 -0.27369,-52.2688 3.99848,-68.7866 7.65434,-29.5944 24.76864,-59.1192 46.74079,-80.635 15.40624,-15.0862 27.86727,-22.9506 61.69049,-38.9341 3.34648,-1.5815 13.06645,-20.7758 221.59585,-437.59372 L 768.6917,320.62056 769.3171,244.06028 C 769.66107,201.95213 770.41321,163.225 770.98851,158 775.15841,120.12848 794.62585,80.771058 822.2077,54.449953 843.48531,34.144919 870.65669,19.018084 898.5,11.976549 c 14.47621,-3.6610149 26.64413,-5.053473 44.03275,-5.0389696 32.49719,0.027105 62.45215,8.2781546 89.82215,24.7413736 38.4291,23.115349 68.0902,66.221791 78.072,113.461897 0.8552,4.04753 2.0742,13.9027 2.7088,21.90038 l 1.1538,14.54123 253.1053,505.95877 c 241.6693,483.09837 253.2633,506.03457 256.6052,507.63717 1.925,0.9232 9.648,4.6206 17.1623,8.2166 36.2435,17.3445 61.2017,42.2322 79.3292,79.105 10.5508,21.4613 15.1541,38.9346 16.3397,62.0234 0.672,13.0859 0.076,32.0246 -1.3436,42.7266 l -0.763,5.75 H 1979.3623 2224 v 415 415 H 1115 6 Z"
       id="path1" />
  </g>
</svg>
