<?xml version="1.0" encoding="UTF-8" standalone="no"?>
<!-- Created with Inkscape (http://www.inkscape.org/) -->

<svg
   version="1.1"
   id="svg1"
   width="2232"
   height="2230"
   viewBox="0 0 2232 2230"
   xmlns="http://www.w3.org/2000/svg"
   xmlns:svg="http://www.w3.org/2000/svg">
  <defs
     id="defs1" />
  <g
     id="g1">
    <path
       style="fill:#000000"
       d="m 380.22252,1391.9388 c -10.62651,-2.0965 -22.2807,-12.1716 -26.24886,-22.6921 -2.89446,-7.6739 -2.42014,-19.3831 1.08347,-26.7467 3.02858,-6.3652 10.61368,-13.9979 16.70831,-16.8131 L 376.5,1323.5 l 262,-0.2943 c 144.1,-0.1619 263.35338,-0.05 265.00751,0.2498 l 3.00752,0.5441 -0.008,34.2502 -0.008,34.2502 -261,0.1414 c -143.55,0.078 -262.92487,-0.2384 -265.27748,-0.7026 z M 976,1357.9831 v -35.0365 l 299.75,0.2767 299.75,0.2767 4.7346,2.1869 c 6.0653,2.8017 13.6815,10.4284 16.7484,16.7718 3.5066,7.2526 3.9657,19.0402 1.0433,26.788 -3.0063,7.9704 -10.4235,15.8389 -18.8335,19.9792 l -6.6505,3.2741 -298.2712,0.2598 L 976,1393.0196 Z"
       id="path1" />
  </g>
</svg>
