<?xml version="1.0" encoding="UTF-8" standalone="no"?>
<!-- Created with Inkscape (http://www.inkscape.org/) -->

<svg
   version="1.1"
   id="svg1"
   width="2304"
   height="2304"
   viewBox="0 0 2304 2304"
   sodipodi:docname="outline.svg"
   inkscape:version="1.4 (86a8ad7, 2024-10-11)"
   xmlns:inkscape="http://www.inkscape.org/namespaces/inkscape"
   xmlns:sodipodi="http://sodipodi.sourceforge.net/DTD/sodipodi-0.dtd"
   xmlns="http://www.w3.org/2000/svg"
   xmlns:svg="http://www.w3.org/2000/svg">
  <defs
     id="defs1" />
  <sodipodi:namedview
     id="namedview1"
     pagecolor="#ffffff"
     bordercolor="#666666"
     borderopacity="1.0"
     inkscape:showpageshadow="2"
     inkscape:pageopacity="0.0"
     inkscape:pagecheckerboard="0"
     inkscape:deskcolor="#d1d1d1"
     showgrid="false"
     inkscape:zoom="0.29692961"
     inkscape:cx="1219.1442"
     inkscape:cy="1660.3262"
     inkscape:window-width="1696"
     inkscape:window-height="1278"
     inkscape:window-x="1869"
     inkscape:window-y="739"
     inkscape:window-maximized="0"
     inkscape:current-layer="g1" />
  <g
     inkscape:groupmode="layer"
     inkscape:label="Image"
     id="g1">
    <path
       style="fill:#000000"
       d="m 30,1850 v -415 h 105.63647 105.63647 l -0.7027,-10.4903 c -1.77324,-26.4718 -0.27369,-52.2688 3.99848,-68.7866 7.65434,-29.5944 24.76864,-59.1192 46.74079,-80.635 15.40624,-15.0862 27.86727,-22.9506 61.69049,-38.9341 3.34648,-1.5815 13.06645,-20.7758 221.59585,-437.59372 L 792.6917,362.62056 793.3171,286.06028 C 793.66107,243.95213 794.41321,205.225 794.98851,200 799.15841,162.12848 818.62585,122.77106 846.2077,96.449953 867.48531,76.144919 894.65669,61.018084 922.5,53.976549 c 14.47621,-3.661015 26.64413,-5.053473 44.03275,-5.03897 32.49719,0.02711 62.45215,8.278155 89.82215,24.741374 38.4291,23.115349 68.0902,66.221787 78.072,113.461897 0.8552,4.04753 2.0742,13.9027 2.7088,21.90038 l 1.1538,14.54123 253.1053,505.95877 c 241.6693,483.09837 253.2633,506.03457 256.6052,507.63717 1.925,0.9232 9.648,4.6206 17.1623,8.2166 36.2435,17.3445 61.2017,42.2322 79.3292,79.105 10.5508,21.4613 15.1541,38.9346 16.3397,62.0234 0.672,13.0859 0.076,32.0246 -1.3436,42.7266 l -0.763,5.75 H 2003.3623 2248 v 415 415 H 1139 30 Z m 2080,173 v -104 h -35 -35 V 1815.5 1712 h 34.5 34.5 v -70 -70 H 1554.5 1000 v -68.4934 l 0,-68.4935 298.75,-0.2565 298.75,-0.2566 5.6654,-2.7822 c 7.6408,-3.7522 17.0434,-13.8198 19.3264,-20.6931 2.2748,-6.8488 1.767,-20.8385 -0.9629,-26.5247 -1.0561,-2.2 -4.7072,-6.7597 -8.1135,-10.1327 -8.4851,-8.4023 -10.9678,-9.0762 -36.547,-9.9213 -11.3474,-0.3749 -21.0823,-0.9661 -21.6331,-1.3138 -0.5509,-0.3477 -125.4257,-249.4894 -277.4997,-553.6481 l -276.4983,-553.0159 -0.6696,-21.9841 c -0.82546,-27.10281 -1.1944,-28.38494 -10.94426,-38.03361 -5.82178,-5.76135 -8.19151,-7.38271 -12.96853,-8.87298 -7.56149,-2.35893 -19.11976,-1.82216 -25.92103,1.20379 -6.06252,2.69728 -15.18221,11.77756 -18.03049,17.95258 l -2.19841,4.76612 -0.61524,91.96972 -0.61523,91.96973 -241.88726,483.79074 C 552.99895,1148.0158 444.83337,1363.2084 444,1363.4427 c -0.825,0.2319 -10.5,0.7088 -21.5,1.0598 -13.05624,0.4165 -21.58857,1.1422 -24.57554,2.0902 -6.53517,2.0741 -15.09273,10.0552 -18.8558,17.5858 -2.67266,5.3485 -3.06866,7.1942 -3.06866,14.3031 0,4.9177 0.64722,10.0616 1.62825,12.9408 2.2224,6.5224 11.82698,16.6716 19.2063,20.2954 l 5.66545,2.7822 263.75,0.2574 263.75,0.2574 0,68.4926 V 1572 H 549 168 v 69.5314 c 0,54.744 0.26584,69.6169 1.25,69.9334 0.6875,0.2211 16.48991,0.6692 35.11646,0.9957 18.62655,0.3266 34.60155,1.0042 35.5,1.5059 0.89845,0.5017 47.53271,46.8395 103.6317,102.9729 L 445.49632,1919 H 306.74816 168 v 104 104 h 971 971 z"
       id="path1" />
  </g>
</svg>
