<?xml version="1.0" encoding="UTF-8" standalone="no"?>
<!-- Created with Inkscape (http://www.inkscape.org/) -->

<svg
   version="1.1"
   id="svg1"
   width="2232"
   height="2230"
   viewBox="0 0 2232 2230"
   xmlns="http://www.w3.org/2000/svg"
   xmlns:svg="http://www.w3.org/2000/svg">
  <defs
     id="defs1" />
  <g
     id="g1">
    <path
       style="fill:#000000"
       d="m 906.08483,1426.75 c 0.2182,-57.3375 0.29037,-361.65 0.16039,-676.25 -0.1439,-348.27189 0.12667,-574.21287 0.69175,-577.6576 1.81908,-11.08896 9.31593,-20.76132 19.86653,-25.63161 7.59704,-3.50688 21.06922,-3.69555 28.45545,-0.39849 9.15957,4.08864 17.73856,14.09797 19.87418,23.1877 0.45228,1.925 0.83169,277.6625 0.84314,612.75 0.0166,487.0929 0.27173,609.2531 1.27227,609.2653 0.99205,0.012 0.9895,0.1816 -0.0123,0.8175 -1.00251,0.6364 -1.20923,15.0004 -1,69.4849 l 0.26375,68.6826 -35.40595,-2e-4 -35.40594,-10e-5 z"
       id="path1" />
  </g>
</svg>
