<?xml version="1.0" encoding="UTF-8" standalone="no"?>
<!-- Created with Inkscape (http://www.inkscape.org/) -->

<svg
   version="1.1"
   id="svg1"
   width="2232"
   height="2230"
   viewBox="0 0 2232 2230"
   xmlns="http://www.w3.org/2000/svg"
   xmlns:svg="http://www.w3.org/2000/svg">
  <defs
     id="defs1" />
  <g
     id="g1">
    <path
       style="fill:#000000"
       d="m 144,1981 v -104 h 138.71688 138.71687 l 34.55195,34.5 34.55195,34.5 h 7.65882 c 39.86974,0 83.43515,-20.5073 119.08863,-56.0579 l 12.7851,-12.7482 5.2149,5.6513 c 29.41398,31.8752 62.82834,51.932 100.7149,60.4535 8.20307,1.8451 12.63993,2.1368 32.5,2.1368 20.01083,0 24.26825,-0.2841 32.75851,-2.1863 35.50237,-7.9538 67.62407,-26.5871 94.82624,-55.0071 L 906.5,1877.3605 918,1888.9941 c 28.07622,28.4025 60.00367,46.7546 94.2182,54.1572 13.5813,2.9384 42.473,3.6495 57.64,1.4186 37.1705,-5.4674 72.6412,-24.7587 104.1593,-56.6486 l 10.5174,-10.6416 8.4826,9.0406 c 26.7354,28.4943 62.0837,49.2165 96.8668,56.7861 14.9711,3.2581 43.7646,3.7649 59.6988,1.0509 27.5142,-4.6864 51.9012,-15.5696 77.28,-34.488 9.0315,-6.7325 24.4367,-21.1323 30.964,-28.9432 l 3.1538,-3.7739 10.2595,10.6528 c 27.9448,29.0158 60.5271,47.8132 96.9005,55.9038 9.9281,2.2084 41.4507,3.1286 53.372,1.5582 37.7208,-4.9693 73.1842,-23.628 104.7722,-55.1249 l 12.7851,-12.7482 5.2046,5.6531 c 24.5957,26.715 55.431,47.1832 84.4989,56.0897 18.7922,5.7579 24.7717,6.5633 48.7263,6.5633 17.3654,0 23.7906,-0.379 30.5,-1.7992 37.0927,-7.8515 68.8972,-26.0372 97.2111,-55.5851 L 2015.8626,1877 H 2050.9313 2086 v 104 104 H 1115 144 Z"
       id="path1" />
  </g>
</svg>
