<?xml version="1.0" encoding="UTF-8" standalone="no"?><!DOCTYPE svg PUBLIC "-//W3C//DTD SVG 1.1//EN" "http://www.w3.org/Graphics/SVG/1.1/DTD/svg11.dtd"><svg width="100%" height="100%" viewBox="0 0 5788 1536" version="1.1" xmlns="http://www.w3.org/2000/svg" xmlns:xlink="http://www.w3.org/1999/xlink" xml:space="preserve" xmlns:serif="http://www.serif.com/" style="fill-rule:evenodd;clip-rule:evenodd;stroke-linecap:round;stroke-linejoin:round;stroke-miterlimit:1.5;"><path d="M5641.4,1066.8c0,-43.154 -35.035,-78.19 -78.189,-78.19l-454.183,0c-43.154,0 -78.189,35.036 -78.189,78.19l-0,156.379c-0,43.154 35.035,78.19 78.189,78.19l454.183,-0c43.154,-0 78.189,-35.036 78.189,-78.19l0,-156.379Z" style="fill:none;stroke:#000;stroke-width:4.17px;"/><g><path d="M5118.44,1094.76c0,-4.254 -3.454,-7.707 -7.708,-7.707l-15.415,-0c-4.254,-0 -7.707,3.453 -7.707,7.707l-0,48.274c-0,4.254 3.453,7.707 7.707,7.707l15.415,0c4.254,0 7.708,-3.453 7.708,-7.707l0,-48.274Z" style="stroke:#000;stroke-width:4.17px;"/><path d="M5113.27,1152.78c0,-2.828 -2.296,-5.124 -5.125,-5.124l-10.249,-0c-2.828,-0 -5.124,2.296 -5.124,5.124l-0,34.777c-0,2.829 2.296,5.125 5.124,5.125l10.249,0c2.829,0 5.125,-2.296 5.125,-5.125l0,-34.777Z" style="stroke:#000;stroke-width:4.17px;"/><circle cx="5103.02" cy="1072.35" r="8.988" style="stroke:#000;stroke-width:4.17px;"/></g><g><path d="M5172.16,1094.76c0,-4.254 -3.454,-7.707 -7.708,-7.707l-15.415,-0c-4.254,-0 -7.707,3.453 -7.707,7.707l-0,48.274c-0,4.254 3.453,7.707 7.707,7.707l15.415,0c4.254,0 7.708,-3.453 7.708,-7.707l0,-48.274Z" style="stroke:#000;stroke-width:4.17px;"/><path d="M5167,1152.78c0,-2.828 -2.296,-5.124 -5.125,-5.124l-10.249,-0c-2.828,-0 -5.124,2.296 -5.124,5.124l-0,34.777c-0,2.829 2.296,5.125 5.124,5.125l10.249,0c2.829,0 5.125,-2.296 5.125,-5.125l0,-34.777Z" style="stroke:#000;stroke-width:4.17px;"/><circle cx="5156.75" cy="1072.35" r="8.988" style="stroke:#000;stroke-width:4.17px;"/></g><g><path d="M5223.9,1094.76c0,-4.254 -3.453,-7.707 -7.707,-7.707l-15.416,-0c-4.253,-0 -7.707,3.453 -7.707,7.707l-0,48.274c-0,4.254 3.454,7.707 7.707,7.707l15.416,0c4.254,0 7.707,-3.453 7.707,-7.707l0,-48.274Z" style="stroke:#000;stroke-width:4.17px;"/><path d="M5218.73,1152.78c0,-2.828 -2.296,-5.124 -5.124,-5.124l-10.25,-0c-2.828,-0 -5.124,2.296 -5.124,5.124l-0,34.777c-0,2.829 2.296,5.125 5.124,5.125l10.25,0c2.828,0 5.124,-2.296 5.124,-5.125l0,-34.777Z" style="stroke:#000;stroke-width:4.17px;"/><circle cx="5208.48" cy="1072.35" r="8.988" style="stroke:#000;stroke-width:4.17px;"/></g><text x="5259.37px" y="1155.59px" style="font-family:'Helvetica-Bold', 'Helvetica';font-weight:700;font-size:50px;">Mortality</text><path d="M5132.97,1212.71l47.558,-163.213" style="fill:none;stroke:#f00;stroke-width:8.33px;"/><path d="M5180.53,1212.71l-47.558,-163.213" style="fill:none;stroke:#f00;stroke-width:8.33px;"/><path d="M4559.52,569.907c-0,-73.698 -59.833,-133.531 -133.531,-133.531l-595.502,-0c-73.698,-0 -133.531,59.833 -133.531,133.531l0,597.934c0,73.698 59.833,133.532 133.531,133.532l595.502,-0c73.698,-0 133.531,-59.834 133.531,-133.532l-0,-597.934Z" style="fill:none;stroke:#000;stroke-width:4.17px;"/><g><circle cx="3874.34" cy="821.433" r="30.95" style="fill:none;stroke:#000;stroke-width:4.17px;"/><ellipse cx="3879.74" cy="821.23" rx="15.139" ry="16.766" style="fill:none;stroke:#000;stroke-width:4.17px;"/></g><g transform="matrix(1,0,0,1,3852.97,-619.641)"><text x="78.668px" y="1144.64px" style="font-family:'Helvetica-Bold', 'Helvetica';font-weight:700;font-size:50px;">Allostatic Load</text><text x="78.668px" y="1244.64px" style="font-family:'Helvetica';font-size:45.833px;">Cardiovascular response</text><text x="78.668px" y="1294.64px" style="font-family:'Helvetica';font-size:45.833px;">e.g. HR, SBP, DBP, HRV</text><text x="78.668px" y="1394.64px" style="font-family:'Helvetica';font-size:45.833px;">Immune response</text><text x="78.668px" y="1444.64px" style="font-family:'Helvetica';font-size:45.833px;">e.g. CRP, ﬁbrinogen, IL-6</text><text x="78.668px" y="1544.64px" style="font-family:'Helvetica';font-size:45.833px;">Metabolic response</text><text x="78.668px" y="1594.64px" style="font-family:'Helvetica';font-size:45.833px;">e.g. BMI, WHR, glucose</text><text x="580.899px" y="1594.64px" style="font-family:'Helvetica';font-size:45.833px;">and</text><text x="78.668px" y="1644.64px" style="font-family:'Helvetica';font-size:45.833px;">lipid homeostasis</text><text x="78.668px" y="1744.64px" style="font-family:'Helvetica';font-size:45.833px;">Neuroendocrine response</text><text x="78.668px" y="1794.64px" style="font-family:'Helvetica';font-size:45.833px;">e.g. catecholamines,</text><text x="78.668px" y="1844.64px" style="font-family:'Helvetica';font-size:45.833px;">cortisol, DHEA, T3</text></g><g><path d="M3736.71,645.552l18.732,0" style="fill:none;stroke:#000;stroke-width:6.25px;"/><path d="M3780.62,645.552l18.732,0" style="fill:none;stroke:#000;stroke-width:6.25px;"/><path d="M3824.46,645.552l18.732,0" style="fill:none;stroke:#000;stroke-width:6.25px;"/><clipPath id="_clip1"><rect x="3753.72" y="620.086" width="30.115" height="28.408"/></clipPath><g clip-path="url(#_clip1)"><ellipse cx="3769.17" cy="649.675" rx="11.216" ry="14.204" style="fill:none;stroke:#000;stroke-width:6.25px;"/></g><clipPath id="_clip2"><rect x="3836.1" y="620.086" width="51.095" height="28.408"/></clipPath><g clip-path="url(#_clip2)"><ellipse cx="3862.31" cy="649.675" rx="19.029" ry="14.204" style="fill:none;stroke:#000;stroke-width:6.25px;"/></g><path d="M3800.3,646.879l1.746,15.694l10.387,-72.058l5.584,80.57l6.088,-25.441" style="fill:none;stroke:#000;stroke-width:6.25px;"/></g><path d="M3748.86,748.029c-1.003,-14.101 -13.926,-13.744 -18.842,-25.557c-0.198,-0.475 -1.791,-4.004 -1.167,-4.38c0.763,-0.461 11.356,8.827 12.049,9.762c3.347,4.518 7.936,8.495 13.502,9.266c10.282,1.423 -0.89,-23.284 -0.709,-23.529c0.608,-0.821 3.481,3.406 3.63,3.7c2.397,4.729 4.869,9.135 10.617,10.095c6.624,1.107 6.091,-16.865 14.232,-16.831c0.373,0.002 -0.15,3.364 -0.186,3.559c-1.031,5.574 -2.702,11.446 5.578,12.051c7.253,0.53 11.853,-12.663 14.9,-17.331c0.189,-0.291 2.03,-3.019 2.227,-2.893c4.13,2.652 -10.999,24.704 -10.883,28.646c0.074,2.493 24.269,0.239 26.861,2.598c3.971,3.614 -16.926,6.784 -17.234,8.104c-1.307,5.589 22.64,4.2 24.968,6.779c0.195,0.217 -3.565,2.599 -3.756,2.69c-6.207,2.959 -18.673,2.893 -23.555,7.826c-0.741,0.749 7.602,6.858 8.395,7.317c5.183,2.999 10.463,5.967 16.026,8.213c2.319,0.936 9.362,3.061 7.332,1.599c-3.518,-2.535 -11.641,0.908 -15.811,0.259c-1.119,-0.174 -22.238,-11.265 -8.294,-3.36c6.031,3.42 11.372,19.347 13.941,25.904c1.221,3.115 -5.86,-3.626 -7.739,-6.395c-3.201,-4.715 -12.232,-19.715 -19.784,-11.58c-3.952,4.257 -6.759,18.01 -5.122,23.521c1.308,4.4 10.432,10.646 6.157,12.319c-7.402,2.896 -10.268,-17.206 -20.069,-18.351c-6.71,-0.785 -9.232,17.044 -15.735,19.461c-1.166,0.433 -3.096,-2.927 -3.467,-3.632c-5.115,-9.736 14.709,-14.07 10.232,-19.506c-10.651,-12.93 -20.065,8.741 -28.288,4.629c-0.359,-0.18 -3.657,-1.824 -3.532,-2.283c1.27,-4.681 12.546,-9.481 9.021,-16.362c-4.97,-9.701 -32.109,1.804 -32.279,-3.846c-0.306,-10.122 26.544,1.224 31.862,-9.162c5.286,-10.323 -21.181,-5.937 -23.728,-10.32c-4.361,-7.505 2.348,-7.453 10.022,-3.745c8.978,4.339 17.144,-6.358 18.628,-9.235Z" style="fill:none;stroke:#000;stroke-width:4.17px;"/><path d="M3768.56,756.262c6.346,-4.95 14.681,-4.89 18.601,0.135c3.919,5.025 1.949,13.124 -4.397,18.074c-6.346,4.951 -14.681,4.89 -18.6,-0.135c-3.92,-5.025 -1.95,-13.124 4.396,-18.074Z" style="fill:none;stroke:#000;stroke-width:4.17px;"/><g><path d="M3816.76,1211.33c2.511,-2.684 0.982,-2.554 4.039,-4.244c19.874,-10.99 21.562,-31.966 37.25,-48.273c1.896,-1.97 9.578,19.696 9.974,21.258c3.448,13.593 12.531,25.451 15.58,38.385c0.96,4.07 -29.605,-1.671 -32.449,-1.716c-10.934,-0.171 -13.082,-0.517 -23.727,2.085c-3.012,0.737 -8.226,2.665 -9.943,-1.08c-0.932,-2.031 -2.046,-5.003 -0.724,-6.415Z" style="fill:none;stroke:#000;stroke-width:4.17px;"/><path d="M3836.31,1206.83c3.998,-4.332 8.889,-8.7 11.94,-13.85c2.324,-3.924 2.583,-10.714 8.044,-11.792c0.737,-0.146 1.629,1.819 1.828,2.292c1.235,2.934 1.738,6.081 2.645,9.112c1.554,5.194 3.784,10.022 6.247,14.839c0.545,1.066 1.813,1.947 2.234,2.979c0.171,0.419 -1.613,0.969 -1.828,0.986c-1.851,0.149 -4.02,-0.863 -5.762,-1.409c-4.452,-1.396 -6.486,-2.454 -11.121,-2.562c-4.413,-0.103 -10.74,1.448 -14.988,2.27c-0.572,0.111 -1.694,-0.583 -1.172,-1.163" style="fill:none;stroke:#000;stroke-width:4.17px;"/></g><path d="M3767.72,1171.72c-2.065,1.82 -2.515,12.868 -5.251,13.926c-20.328,7.866 -26.875,-16.42 -27.313,-30.297c-0.184,-5.816 1.65,-11.583 3.416,-17.83c3.439,-12.159 14.674,-18.954 22.017,-5.175c1.726,3.238 4.385,16.665 9.115,16.606c2.456,-0.031 2.651,-19.26 4.827,-19.568c1.708,-0.242 5.153,20.498 7.3,20.028c7.025,-1.54 6.173,-26.686 14.192,-24.838c7.03,1.62 12.621,16.531 13.913,22.678c2.622,12.471 0.858,24.994 -6.625,35.686c-5.805,8.296 -22.555,7.441 -21.586,-0.866c0.533,-4.569 -0.843,-10.058 -4.322,-11.732c-3.268,-1.572 -8.6,0.505 -9.683,1.382Z" style="fill:none;stroke:#000;stroke-width:4.17px;"/><g><path d="M3733.33,936.167c15.653,-9.521 29.919,-6.913 46.461,-3.496c9.886,2.042 19.65,0.371 29.607,2.303c5.718,1.11 36.774,3.033 37.482,8.262c0.45,3.325 -27.37,10.01 -32.648,10.1c-7.804,0.133 -20.113,14.406 -27.084,17.811c-11.474,5.604 -14.548,10.037 -26.526,14.948c-4.614,1.892 -15.618,7.561 -20.371,3.599c-6.484,-5.404 0.092,-16.136 -5.268,-21.691c-2.557,-2.65 -7.307,-28.718 -1.653,-31.836Z" style="fill:none;stroke:#000;stroke-width:4.17px;"/><path d="M3787.25,934.591c-2.057,2.223 -4.894,3.364 -6.648,5.887c-3.869,5.569 -4.059,13.57 -4.369,20.066" style="fill:none;stroke:#000;stroke-width:2.71px;"/></g><path d="M3814.4,1006.77c0.191,-4.211 0.674,-10.192 2.702,-14.096c0.786,-1.514 2.144,-2.133 3.286,-2.827c2.672,-1.623 5.275,-2.027 8.124,-2.729c1.995,-0.491 4.036,-1.151 6.057,-1.168c1.546,-0.013 3.233,0.417 4.768,0.135c6.902,-1.266 13.855,-1.185 20.782,-2.788c2.462,-0.569 4.849,-1.707 7.302,-2.326c1.582,-0.4 3.538,-0.224 5.057,-1.029c2.802,-1.485 6.253,-1.817 8.535,-4.781c2.068,-2.686 7.153,-8.593 6.453,0.264c-0.371,4.687 -2.788,6.379 -5.189,8.19c-3.559,2.683 -5.605,4.066 -9.441,4.919c-2.921,0.65 -6.138,2.099 -8.916,3.597c-2.783,1.501 -6.876,1.871 -9.756,2.689c-3.716,1.055 -3.064,2.111 -6.57,4.274c-1.973,1.217 -7.149,1.823 -8.852,3.846c-1.309,1.557 -2.947,0.568 -5.404,1.195c-1.576,0.401 -3.3,0.465 -3.951,1.709c-0.757,1.446 1.091,6.228 0.872,8.882c-0.442,5.372 -4.583,10.008 -8.159,8.989c-0.843,-0.24 -1.548,-1.084 -2.303,-1.604c-0.859,-0.59 -2.581,-1.072 -3.142,-2.292c-1.485,-3.234 -1.131,-9.322 -2.255,-13.049Z" style="fill:none;stroke:#000;stroke-width:2.71px;"/><path d="M1995.16,569.907c-0,-73.698 -59.833,-133.531 -133.531,-133.531l-595.502,-0c-73.698,-0 -133.531,59.833 -133.531,133.531l0,597.934c0,73.698 59.833,133.532 133.531,133.532l595.502,-0c73.698,-0 133.531,-59.834 133.531,-133.532l-0,-597.934Z" style="fill:none;stroke:#000;stroke-width:4.17px;"/><path d="M655.644,514.565c-0,-43.154 -35.036,-78.189 -78.19,-78.189l-454.182,-0c-43.154,-0 -78.19,35.035 -78.19,78.189l0,156.38c0,43.154 35.036,78.189 78.19,78.189l454.182,0c43.154,0 78.19,-35.035 78.19,-78.189l-0,-156.38Z" style="fill:none;stroke:#000;stroke-width:4.17px;"/><g transform="matrix(1,0,0,1,-355.507,280.252)"><text x="426.76px" y="244.528px" style="font-family:'Helvetica-Bold', 'Helvetica';font-weight:700;font-size:50px;">Adverse</text><text x="426.76px" y="294.528px" style="font-family:'Helvetica-Bold', 'Helvetica';font-weight:700;font-size:50px;">childhood</text><text x="426.76px" y="344.528px" style="font-family:'Helvetica-Bold', 'Helvetica';font-weight:700;font-size:50px;">experiences</text><text x="426.76px" y="386.195px" style="font-family:'Helvetica';font-size:41.667px;">e.g. abuse, discrimination,</text><text x="426.76px" y="427.861px" style="font-family:'Helvetica';font-size:41.667px;">neglect, violent parenting etc.</text></g><g><path d="M445.286,546.71l-13.551,12.553l45.27,12.625l-9.135,-46.101l-13.55,12.554l-22.023,-23.772l-9.033,8.369l22.022,23.772Z"/><path d="M456.474,556.387l-55.787,-55.209l35.129,-0.111l22.794,43.554"/><rect x="420.901" y="501.273" width="36.45" height="15.191"/><path d="M451.644,516.344l-40.265,-44.511l31.238,0l21.897,44.224l-12.87,0.287Z"/></g><path d="M5641.4,514.565c0,-43.154 -35.035,-78.189 -78.189,-78.189l-454.183,-0c-43.154,-0 -78.189,35.035 -78.189,78.189l-0,156.38c-0,43.154 35.035,78.189 78.189,78.189l454.183,0c43.154,0 78.189,-35.035 78.189,-78.189l0,-156.38Z" style="fill:none;stroke:#000;stroke-width:4.17px;"/><text x="5259.37px" y="603.355px" style="font-family:'Helvetica-Bold', 'Helvetica';font-weight:700;font-size:50px;">Morbidity</text><path d="M5222.68,598.583c-0,-8.169 -6.632,-14.8 -14.8,-14.8l-92.31,-0c-8.168,-0 -14.8,6.631 -14.8,14.8c0,8.168 6.632,14.8 14.8,14.8l92.31,-0c8.168,-0 14.8,-6.632 14.8,-14.8Z" style="stroke:#000;stroke-width:2.71px;"/><path d="M5145.23,574.161c0,-2.548 -2.068,-4.615 -4.615,-4.615l-26.818,-0c-2.547,-0 -4.615,2.067 -4.615,4.615c-0,2.547 2.068,4.615 4.615,4.615l26.818,-0c2.547,-0 4.615,-2.068 4.615,-4.615Z" style="stroke:#000;stroke-width:2.71px;"/><rect x="5223.67" y="563.635" width="3.917" height="72.387" style="stroke:#000;stroke-width:2.71px;"/><rect x="5100.77" y="541.075" width="5.138" height="94.947" style="stroke:#000;stroke-width:2.71px;"/><rect x="5104.42" y="600.857" width="118.733" height="13.632" style="stroke:#000;stroke-width:2.71px;"/><rect x="5104.42" y="583.59" width="46.91" height="15.258" style="stroke:#000;stroke-width:2.71px;"/><circle cx="5102.52" cy="646.165" r="2.866" style="stroke:#000;stroke-width:2.71px;"/><circle cx="5226.05" cy="646.165" r="2.866" style="stroke:#000;stroke-width:2.71px;"/><path d="M5171.46,514.108l17.154,-0l-0,-16.873l17.79,0l0,17.193l17.533,0l0,17.641l-17.599,-0l0,17.324l-17.718,-0l0,-17.402l-17.098,0l-0.062,-17.883Z" style="fill:none;stroke:#000;stroke-width:3.75px;"/><path d="M655.644,1066.8c-0,-43.154 -35.036,-78.19 -78.19,-78.19l-454.182,0c-43.154,0 -78.19,35.036 -78.19,78.19l0,156.379c0,43.154 35.036,78.19 78.19,78.19l454.182,-0c43.154,-0 78.19,-35.036 78.19,-78.19l-0,-156.379Z" style="fill:none;stroke:#000;stroke-width:4.17px;"/><g transform="matrix(1,0,0,1,-355.507,917.49)"><text x="426.76px" y="244.528px" style="font-family:'Helvetica-Bold', 'Helvetica';font-weight:700;font-size:50px;">Childhood SES</text><text x="426.76px" y="286.195px" style="font-family:'Helvetica';font-size:41.667px;">e.g. educatio</text><text x="665.367px" y="286.195px" style="font-family:'Helvetica';font-size:41.667px;">n</text><text x="688.956px" y="286.195px" style="font-family:'Helvetica';font-size:41.667px;">, ﬁnancial</text><text x="426.76px" y="327.861px" style="font-family:'Helvetica';font-size:41.667px;">situation, occupation etc.</text></g><g transform="matrix(0.972531,-0.232775,0.232775,0.972531,-231.637,-31.1043)"><text x="179.153px" y="1210.42px" style="font-family:'Helvetica-Bold', 'Helvetica';font-weight:700;font-size:41.667px;">€€ $$ ¥¥</text></g><g><path d="M510.98,1053.15c-0,-4.254 -3.454,-7.708 -7.708,-7.708l-15.415,0c-4.254,0 -7.708,3.454 -7.708,7.708l0,48.273c0,4.254 3.454,7.708 7.708,7.708l15.415,0c4.254,0 7.708,-3.454 7.708,-7.708l-0,-48.273Z" style="stroke:#000;stroke-width:4.17px;"/><path d="M505.814,1111.17c-0,-2.828 -2.297,-5.125 -5.125,-5.125l-10.249,0c-2.829,0 -5.125,2.297 -5.125,5.125l0,34.777c0,2.828 2.296,5.125 5.125,5.125l10.249,-0c2.828,-0 5.125,-2.297 5.125,-5.125l-0,-34.777Z" style="stroke:#000;stroke-width:4.17px;"/><circle cx="495.564" cy="1030.74" r="8.988" style="stroke:#000;stroke-width:4.17px;"/></g><g><path d="M597.757,1053.15c-0,-4.254 -3.454,-7.708 -7.708,-7.708l-15.415,0c-4.254,0 -7.707,3.454 -7.707,7.708l-0,48.273c-0,4.254 3.453,7.708 7.707,7.708l15.415,0c4.254,0 7.708,-3.454 7.708,-7.708l-0,-48.273Z" style="stroke:#000;stroke-width:4.17px;"/><path d="M592.591,1111.17c0,-2.828 -2.296,-5.125 -5.125,-5.125l-10.249,0c-2.828,0 -5.124,2.297 -5.124,5.125l-0,34.777c-0,2.828 2.296,5.125 5.124,5.125l10.249,-0c2.829,-0 5.125,-2.297 5.125,-5.125l0,-34.777Z" style="stroke:#000;stroke-width:4.17px;"/><circle cx="582.342" cy="1030.74" r="8.988" style="stroke:#000;stroke-width:4.17px;"/></g><g><path d="M550.759,1086.2c0,-3.007 -2.441,-5.448 -5.448,-5.448l-10.896,-0c-3.007,-0 -5.448,2.441 -5.448,5.448l-0,34.122c-0,3.007 2.441,5.448 5.448,5.448l10.896,0c3.007,0 5.448,-2.441 5.448,-5.448l0,-34.122Z" style="stroke:#000;stroke-width:4.17px;"/><path d="M547.108,1127.21c-0,-1.999 -1.623,-3.622 -3.623,-3.622l-7.244,-0c-2,-0 -3.623,1.623 -3.623,3.622l0,24.583c0,1.999 1.623,3.622 3.623,3.622l7.244,-0c2,-0 3.623,-1.623 3.623,-3.622l-0,-24.583Z" style="stroke:#000;stroke-width:4.17px;"/><circle cx="539.863" cy="1069.41" r="8.483" style="stroke:#000;stroke-width:4.17px;"/></g><g><g><path d="M1268.64,803.749c0,-4.254 -3.454,-7.708 -7.708,-7.708l-15.415,0c-4.254,0 -7.707,3.454 -7.707,7.708l-0,48.274c-0,4.254 3.453,7.707 7.707,7.707l15.415,0c4.254,0 7.708,-3.453 7.708,-7.707l0,-48.274Z" style="stroke:#000;stroke-width:4.17px;"/><path d="M1263.48,861.77c0,-2.828 -2.296,-5.124 -5.125,-5.124l-10.249,-0c-2.828,-0 -5.124,2.296 -5.124,5.124l-0,34.777c-0,2.829 2.296,5.125 5.124,5.125l10.249,-0c2.829,-0 5.125,-2.296 5.125,-5.125l0,-34.777Z" style="stroke:#000;stroke-width:4.17px;"/><circle cx="1253.23" cy="781.341" r="8.988" style="stroke:#000;stroke-width:4.17px;"/></g><g><g><path d="M1286.82,857.356c-0,-2.746 2.229,-4.975 4.975,-4.975l9.951,0c2.746,0 4.975,2.229 4.975,4.975l0,38.786c0,2.746 -2.229,4.975 -4.975,4.975l-9.951,0c-2.746,0 -4.975,-2.229 -4.975,-4.975l-0,-38.786Z" style="stroke:#000;stroke-width:4.17px;"/><ellipse cx="1343.84" cy="798.852" rx="8.726" ry="9.728" style="stroke:#000;stroke-width:4.17px;"/><path d="M1330.47,805.467c-14.785,-6.86 -32.972,4.133 -40.588,24.535c-7.615,20.401 -1.795,42.534 12.991,49.394c-0.247,-10.956 1.748,-25.731 7.101,-40.072c5.354,-14.342 13.35,-26.331 20.496,-33.857Z" style="stroke:#000;stroke-width:4.17px;"/></g></g><g><g><path d="M1327.02,870.136c0,-2.828 2.297,-5.124 5.125,-5.124l10.249,-0c2.829,-0 5.125,2.296 5.125,5.124l-0,26.226c-0,2.828 -2.296,5.125 -5.125,5.125l-10.249,-0c-2.828,-0 -5.125,-2.297 -5.125,-5.125l0,-26.226Z" style="stroke:#000;stroke-width:4.17px;"/><ellipse cx="1385.75" cy="824.95" rx="8.988" ry="7.281" style="stroke:#000;stroke-width:4.17px;"/><path d="M1371.98,829.9c-15.229,-5.134 -33.961,3.094 -41.805,18.362c-7.845,15.269 -1.849,31.834 13.38,36.968c-0.254,-8.2 1.8,-19.257 7.314,-29.991c5.515,-10.733 13.751,-19.706 21.111,-25.339Z" style="stroke:#000;stroke-width:4.17px;"/></g></g><path d="M1370.56,840.555l-0,58.898" style="fill:none;stroke:#000;stroke-width:6.25px;"/></g><g><path d="M1281.69,642.046c-0,-4.254 -3.454,-7.708 -7.708,-7.708l-15.415,0c-4.254,0 -7.708,3.454 -7.708,7.708l0,48.273c0,4.254 3.454,7.708 7.708,7.708l15.415,0c4.254,0 7.708,-3.454 7.708,-7.708l-0,-48.273Z" style="stroke:#000;stroke-width:4.17px;"/><path d="M1276.53,700.067c-0,-2.828 -2.296,-5.125 -5.125,-5.125l-10.249,0c-2.828,0 -5.125,2.297 -5.125,5.125l0,34.777c0,2.828 2.297,5.125 5.125,5.125l10.249,-0c2.829,-0 5.125,-2.297 5.125,-5.125l-0,-34.777Z" style="stroke:#000;stroke-width:4.17px;"/><circle cx="1266.28" cy="619.637" r="8.988" style="stroke:#000;stroke-width:4.17px;"/></g><g transform="matrix(1,0,0,1,1154.44,-618.811)"><text x="78.668px" y="1144.64px" style="font-family:'Helvetica-Bold', 'Helvetica';font-weight:700;font-size:50px;">Stress</text><text x="267.645px" y="1307.14px" style="font-family:'Helvetica';font-size:45.833px;">Adult Stress</text><text x="267.645px" y="1477.98px" style="font-family:'Helvetica';font-size:45.833px;"><tspan x="267.645px " y="1477.98px ">A</tspan>geing</text><text x="267.645px" y="1640.48px" style="font-family:'Helvetica';font-size:45.833px;"><tspan x="267.645px " y="1640.48px ">H</tspan>ealth behaviour</text><text x="267.645px" y="1802.98px" style="font-family:'Helvetica';font-size:45.833px;"><tspan x="267.645px " y="1802.98px ">P</tspan>TSD</text></g><g><ellipse cx="1339.42" cy="984.881" rx="0.781" ry="0.832" style="stroke:#000;stroke-width:2.29px;stroke-miterlimit:1;"/><ellipse cx="1335.69" cy="990.942" rx="0.781" ry="0.832" style="stroke:#000;stroke-width:2.29px;stroke-miterlimit:1;"/><ellipse cx="1346.51" cy="984.881" rx="0.781" ry="0.832" style="stroke:#000;stroke-width:2.29px;stroke-miterlimit:1;"/><ellipse cx="1342.79" cy="990.942" rx="0.781" ry="0.832" style="stroke:#000;stroke-width:2.29px;stroke-miterlimit:1;"/><ellipse cx="1353.6" cy="984.881" rx="0.781" ry="0.832" style="stroke:#000;stroke-width:2.29px;stroke-miterlimit:1;"/><ellipse cx="1349.88" cy="990.942" rx="0.781" ry="0.832" style="stroke:#000;stroke-width:2.29px;stroke-miterlimit:1;"/><ellipse cx="1360.7" cy="984.881" rx="0.781" ry="0.832" style="stroke:#000;stroke-width:2.29px;stroke-miterlimit:1;"/><ellipse cx="1356.97" cy="990.942" rx="0.781" ry="0.832" style="stroke:#000;stroke-width:2.29px;stroke-miterlimit:1;"/><ellipse cx="1367.79" cy="984.881" rx="0.781" ry="0.832" style="stroke:#000;stroke-width:2.29px;stroke-miterlimit:1;"/><ellipse cx="1364.07" cy="990.942" rx="0.781" ry="0.832" style="stroke:#000;stroke-width:2.29px;stroke-miterlimit:1;"/><ellipse cx="1371.72" cy="990.942" rx="0.781" ry="0.832" style="stroke:#000;stroke-width:2.29px;stroke-miterlimit:1;"/><path d="M1382.84,1006.85c0,-0.848 -0.688,-1.536 -1.536,-1.536l-55.855,-0c-0.848,-0 -1.537,0.688 -1.537,1.536l0,3.073c0,0.848 0.689,1.537 1.537,1.537l55.855,-0c0.848,-0 1.536,-0.689 1.536,-1.537l0,-3.073Z" style="fill:none;stroke:#000;stroke-width:3.96px;stroke-linejoin:miter;stroke-miterlimit:1;"/><path d="M1324.22,1000.96c59.865,0 59.646,0 59.646,0" style="fill:none;stroke:#000;stroke-width:3.96px;stroke-linejoin:miter;stroke-miterlimit:1;stroke-dasharray:3.96,3.96;"/><path d="M1324.22,1015.85c59.865,-0 59.646,-0 59.646,-0" style="fill:none;stroke:#000;stroke-width:3.96px;stroke-linejoin:miter;stroke-miterlimit:1;stroke-dasharray:3.96,3.96;"/><clipPath id="_clip3"><rect x="1319.74" y="972.863" width="68.054" height="23.553"/></clipPath><g clip-path="url(#_clip3)"><ellipse cx="1353.93" cy="1001.16" rx="29.953" ry="25.628" style="fill:none;stroke:#000;stroke-width:3.96px;stroke-linejoin:miter;stroke-miterlimit:1;"/></g><path d="M1324.49,996.584c58.937,0 58.834,0 58.834,0" style="fill:none;stroke:#000;stroke-width:3.96px;stroke-linejoin:miter;stroke-miterlimit:1;"/><clipPath id="_clip4"><rect x="1321.01" y="1019.49" width="66.135" height="13.007"/></clipPath><g clip-path="url(#_clip4)"><path d="M1382.42,1017.38c0,-2.186 -1.775,-3.961 -3.961,-3.961l-50.4,0c-2.186,0 -3.961,1.775 -3.961,3.961l0,7.922c0,2.186 1.775,3.961 3.961,3.961l50.4,-0c2.186,-0 3.961,-1.775 3.961,-3.961l0,-7.922Z" style="fill:none;stroke:#000;stroke-width:3.96px;stroke-linejoin:miter;stroke-miterlimit:1;"/></g><path d="M1324.1,1020.41c58.42,0 58.322,0 58.322,0" style="fill:none;stroke:#000;stroke-width:3.96px;stroke-linejoin:miter;stroke-miterlimit:1;"/></g><path d="M1351.28,1141.31c8.266,-16.138 24.799,-16.138 33.065,-8.069c8.267,8.069 8.267,24.207 0,40.346c-5.786,12.103 -20.666,24.207 -33.065,32.276c-12.4,-8.069 -27.28,-20.173 -33.066,-32.276c-8.266,-16.139 -8.266,-32.277 -0,-40.346c8.266,-8.069 24.799,-8.069 33.066,8.069Z" style="stroke:#000;stroke-width:4.17px;"/><path d="M1395.86,1124.53l-92.926,71.849l11.255,14.557l92.926,-71.849l-11.255,-14.557Z" style="fill:#fff;"/><g><path d="M1336.38,679.856l13.551,12.553l-45.27,12.625l9.135,-46.101l13.551,12.554l22.022,-23.772l9.034,8.369l-22.023,23.772Z"/><path d="M1325.19,689.533l55.788,-55.209l-35.13,-0.11l-22.794,43.553"/><rect x="1324.31" y="634.419" width="36.45" height="15.191"/><path d="M1330.02,649.49l40.265,-44.511l-31.238,0l-21.897,44.224l12.87,0.287Z"/></g><g><path d="M1261.35,1193.45l-13.55,12.553l45.269,12.625l-9.135,-46.101l-13.55,12.554l-22.022,-23.772l-9.034,8.369l22.022,23.772Z"/><path d="M1272.54,1203.13l-55.787,-55.209l35.13,-0.111l22.794,43.554"/><rect x="1236.97" y="1148.02" width="36.45" height="15.191"/><path d="M1267.71,1163.09l-40.265,-44.511l31.238,0l21.897,44.224l-12.87,0.287Z"/></g><path d="M3265.13,569.907c-0,-73.698 -59.834,-133.531 -133.531,-133.531l-595.502,-0c-73.698,-0 -133.531,59.833 -133.531,133.531l-0,597.934c-0,73.698 59.833,133.532 133.531,133.532l595.502,-0c73.697,-0 133.531,-59.834 133.531,-133.532l-0,-597.934Z" style="fill:none;stroke:#000;stroke-width:4.17px;"/><g transform="matrix(1,0,0,1,2424.41,-618.811)"><text x="78.668px" y="1144.64px" style="font-family:'Helvetica-Bold', 'Helvetica';font-weight:700;font-size:50px;">Resilience</text><text x="279.456px" y="1311.31px" style="font-family:'Helvetica';font-size:45.833px;"><tspan x="279.456px " y="1311.31px ">C</tspan>oping</text><text x="279.456px" y="1477.98px" style="font-family:'Helvetica';font-size:45.833px;"><tspan x="279.456px " y="1477.98px ">E</tspan>ducational attainment</text><text x="279.456px" y="1644.64px" style="font-family:'Helvetica';font-size:45.833px;"><tspan x="279.456px " y="1644.64px ">H</tspan>ealth behaviour</text><text x="279.456px" y="1811.31px" style="font-family:'Helvetica';font-size:45.833px;"><tspan x="279.456px " y="1811.31px ">S</tspan>ocial Support</text></g><g><path d="M2602.49,686.75l59.399,-59.608" style="fill:none;stroke:#000;stroke-width:8.33px;"/><path d="M2647.32,621.095l3.268,16.387l-12.025,11.973l-3.268,-16.387l12.025,-11.973Z" style="fill:none;stroke:#000;stroke-width:6.25px;"/><path d="M2653.27,638.263l14.655,7.541l-13.342,9.552l-14.654,-7.541l13.341,-9.552Z" style="fill:none;stroke:#000;stroke-width:6.25px;"/><circle cx="2601.95" cy="685.559" r="12.777"/><circle cx="2601.95" cy="685.559" r="23.242" style="fill:none;stroke:#000;stroke-width:8.33px;"/><circle cx="2601.95" cy="685.559" r="38.017" style="fill:none;stroke:#000;stroke-width:8.33px;"/></g><path d="M2523.46,1150.42c8.267,-16.139 24.8,-16.139 33.066,-8.069c8.267,8.069 8.267,24.207 0,40.345c-5.787,12.104 -20.666,24.208 -33.066,32.277c-12.399,-8.069 -27.279,-20.173 -33.065,-32.277c-8.267,-16.138 -8.267,-32.276 -0,-40.345c8.266,-8.07 24.799,-8.07 33.065,8.069Z" style="fill:none;stroke:#000;stroke-width:4.17px;"/><path d="M2614.11,1150.42c8.266,-16.139 24.799,-16.139 33.066,-8.069c8.266,8.069 8.266,24.207 -0,40.345c-5.787,12.104 -20.666,24.208 -33.066,32.277c-12.4,-8.069 -27.279,-20.173 -33.066,-32.277c-8.266,-16.138 -8.266,-32.276 0,-40.345c8.267,-8.07 24.799,-8.07 33.066,8.069Z" style="fill:none;stroke:#000;stroke-width:4.17px;"/><g><g><circle cx="2475.5" cy="718.792" r="12.777"/><circle cx="2520.18" cy="703.003" r="12.777"/><path d="M2486.28,718.792l0,-66.929" style="fill:none;stroke:#000;stroke-width:4.17px;"/><path d="M2530.96,703.003l0,-66.928" style="fill:none;stroke:#000;stroke-width:4.17px;"/><path d="M2489.6,651.478c42.222,-14.029 41.356,-15.403 41.356,-15.403" style="fill:none;stroke:#000;stroke-width:4.17px;"/><path d="M2489.6,662.474c42.222,-14.029 41.356,-15.404 41.356,-15.404" style="fill:none;stroke:#000;stroke-width:4.17px;"/></g></g><path d="M2481.37,846.863c-0,-30.017 8.907,-54.387 19.878,-54.387c10.972,-0 19.879,24.37 19.879,54.387c0,30.018 -8.907,54.388 -19.879,54.388c-10.971,0 -19.878,-24.37 -19.878,-54.388Z" style="fill:none;stroke:#000;stroke-width:6.25px;"/><path d="M2491.31,864.079c-25.996,-15.009 -42.647,-34.908 -37.162,-44.409c5.486,-9.502 31.045,-5.031 57.041,9.978c25.996,15.008 42.647,34.908 37.162,44.409c-5.486,9.502 -31.045,5.031 -57.041,-9.978Z" style="fill:none;stroke:#000;stroke-width:6.25px;"/><path d="M2462.79,828.968l-20.548,11.433l10.651,19.145l20.549,-11.433l-10.652,-19.145Z" style="fill:#fff;stroke:#fff;stroke-width:6.25px;"/><circle cx="2489.35" cy="802.644" r="5.756" style="stroke:#000;stroke-width:6.25px;"/><circle cx="2544.95" cy="857.983" r="5.756" style="stroke:#000;stroke-width:6.25px;"/><circle cx="2468.82" cy="880.024" r="5.756" style="stroke:#000;stroke-width:6.25px;"/><path d="M2491.31,829.648c25.996,-15.009 51.555,-19.48 57.041,-9.978c5.485,9.501 -11.166,29.4 -37.162,44.409c-25.996,15.009 -51.555,19.48 -57.041,9.978c-5.485,-9.501 11.166,-29.401 37.162,-44.409Z" style="fill:none;stroke:#000;stroke-width:6.25px;"/><circle cx="2501.24" cy="846.704" r="9.564"/><g><path d="M2598.41,958.831l-9.772,-5.642l-66.743,115.603l9.772,5.642l66.743,-115.603Z"/><path d="M2584.03,992.484l-16.154,-9.326l-24.687,42.758l16.154,9.326l24.687,-42.758Z"/><path d="M2545.54,992.484l16.154,-9.326l24.686,42.758l-16.154,9.326l-24.686,-42.758Z"/><path d="M2530.18,959.226l9.772,-5.642l66.515,115.208l-9.772,5.642l-66.515,-115.208Z"/><circle cx="2563.8" cy="972.054" r="9.564"/><path d="M2531.39,1068.94c-0,-1.255 -1.019,-2.273 -2.273,-2.273l-9.784,-0c-1.255,-0 -2.273,1.018 -2.273,2.273l-0,4.546c-0,1.254 1.018,2.273 2.273,2.273l9.784,-0c1.254,-0 2.273,-1.019 2.273,-2.273l-0,-4.546Z"/><path d="M2611.37,1068.94c0,-1.255 -1.018,-2.273 -2.273,-2.273l-9.783,-0c-1.255,-0 -2.273,1.018 -2.273,2.273l-0,4.546c-0,1.254 1.018,2.273 2.273,2.273l9.783,-0c1.255,-0 2.273,-1.019 2.273,-2.273l0,-4.546Z"/><path d="M2512.89,953.581l101.851,-0" style="fill:none;stroke:#000;stroke-width:6.25px;"/><rect x="2516.81" y="939.137" width="2.31" height="29.3" style="stroke:#000;stroke-width:6.25px;"/><rect x="2608.44" y="939.137" width="2.31" height="29.3" style="stroke:#000;stroke-width:6.25px;"/></g><rect x="2584.34" y="819" width="40.944" height="69.85" style="fill:none;stroke:#000;stroke-width:4.17px;"/><rect x="2635.52" y="819" width="40.944" height="69.85" style="fill:none;stroke:#000;stroke-width:4.17px;"/><rect x="2591.76" y="817.083" width="35.653" height="63.366" style="fill:#fffffe;stroke:#fff;stroke-width:4.17px;"/><g><clipPath id="_clip5"><rect x="2588.55" y="878.082" width="42.501" height="8.651"/></clipPath><g clip-path="url(#_clip5)"><ellipse cx="2609.23" cy="886.912" rx="21.824" ry="5.258" style="fill:#fff;stroke:#000;stroke-width:4.17px;"/></g><path d="M2588.79,885.071l0,-69.606" style="fill:none;stroke:#000;stroke-width:4.17px;"/><path d="M2630.13,885.071l-0,-69.606" style="fill:none;stroke:#000;stroke-width:4.17px;"/><clipPath id="_clip6"><rect x="2588.55" y="808.102" width="42.501" height="8.651"/></clipPath><g clip-path="url(#_clip6)"><ellipse cx="2609.23" cy="816.932" rx="21.824" ry="5.258" style="fill:#fff;stroke:#000;stroke-width:4.17px;"/></g></g><rect x="2633.85" y="817.083" width="35.653" height="63.366" style="fill:#fff;stroke:#fff;stroke-width:4.17px;"/><g><clipPath id="_clip7"><rect x="2630.64" y="878.082" width="42.501" height="8.651"/></clipPath><g clip-path="url(#_clip7)"><ellipse cx="2651.32" cy="886.912" rx="21.824" ry="5.258" style="fill:#fff;stroke:#000;stroke-width:4.17px;"/></g><path d="M2630.87,885.071l-0,-69.606" style="fill:none;stroke:#000;stroke-width:4.17px;"/><path d="M2672.21,885.071l-0,-69.606" style="fill:none;stroke:#000;stroke-width:4.17px;"/><clipPath id="_clip8"><rect x="2630.64" y="808.102" width="42.501" height="8.651"/></clipPath><g clip-path="url(#_clip8)"><ellipse cx="2651.32" cy="816.932" rx="21.824" ry="5.258" style="fill:#fff;stroke:#000;stroke-width:4.17px;"/></g></g><path d="M2660.03,811.96c-0,-2.99 -2.428,-5.418 -5.418,-5.418l-14.572,-0c-2.991,-0 -5.418,2.428 -5.418,5.418l-0,10.835c-0,2.99 2.427,5.418 5.418,5.418l14.572,-0c2.99,-0 5.418,-2.428 5.418,-5.418l-0,-10.835Z" style="fill:#fff;stroke:#fff;stroke-width:4.17px;"/><clipPath id="_clip9"><path d="M2658.34,857.204l-31.524,18.258l4.838,10.365l31.524,-18.257l-4.838,-10.366Z"/></clipPath><g clip-path="url(#_clip9)"><path d="M2644.26,870.286c8.63,-4.997 17.052,-6.021 18.796,-2.284c1.744,3.737 -3.846,10.828 -12.475,15.826c-8.63,4.997 -17.052,6.021 -18.796,2.284c-1.744,-3.736 3.846,-10.828 12.475,-15.826Z" style="fill:#fff;stroke:#000;stroke-width:4.17px;"/></g><clipPath id="_clip10"><path d="M2658.83,787.621l-32.022,18.545l4.838,10.366l32.022,-18.546l-4.838,-10.365Z"/></clipPath><g clip-path="url(#_clip10)"><path d="M2644.51,800.848c8.766,-5.077 17.299,-6.164 19.043,-2.428c1.744,3.737 -3.956,10.893 -12.722,15.969c-8.766,5.077 -17.299,6.165 -19.043,2.428c-1.744,-3.737 3.956,-10.892 12.722,-15.969Z" style="fill:#fff;stroke:#000;stroke-width:4.17px;"/></g><path d="M2662.75,797.522l0,68.769" style="fill:none;stroke:#000;stroke-width:4.17px;"/><text x="44.16px" y="1375.48px" style="font-family:'Helvetica-Bold', 'Helvetica';font-weight:700;font-size:54.167px;">Exposure</text><text x="1139.5px" y="1375.48px" style="font-family:'Helvetica-Bold', 'Helvetica';font-weight:700;font-size:54.167px;">Mediators and Moderators</text><text x="2391.94px" y="1375.48px" style="font-family:'Helvetica-Bold', 'Helvetica';font-weight:700;font-size:54.167px;">Attenuators and Moderators</text><text x="2100.1px" y="967.391px" style="font-family:'Helvetica-Bold', 'Helvetica';font-weight:700;font-size:54.167px;">Stress</text><g transform="matrix(1,0,0,1,1248.92,-1014.51)"><text x="78.668px" y="1144.64px" style="font-family:'Helvetica-Bold', 'Helvetica';font-weight:700;font-size:50px;">Stressful life events</text><text x="175.824px" y="1194.64px" style="font-family:'Helvetica-Bold', 'Helvetica';font-weight:700;font-size:50px;">&quot;Stressors&quot;</text></g><text x="753.019px" y="700.067px" style="font-family:'Helvetica-Bold', 'Helvetica';font-weight:700;font-size:54.167px;">Imprinting</text><text x="4649.09px" y="700.067px" style="font-family:'Helvetica-Bold', 'Helvetica';font-weight:700;font-size:54.167px;">Expression</text><text x="753.019px" y="1256.47px" style="font-family:'Helvetica-Bold', 'Helvetica';font-weight:700;font-size:54.167px;">Imprinting</text><text x="4649.09px" y="1256.47px" style="font-family:'Helvetica-Bold', 'Helvetica';font-weight:700;font-size:54.167px;">Expression</text><text x="3372.58px" y="967.391px" style="font-family:'Helvetica-Bold', 'Helvetica';font-weight:700;font-size:54.167px;">Strain</text><text x="3692.92px" y="1375.48px" style="font-family:'Helvetica-Bold', 'Helvetica';font-weight:700;font-size:54.167px;">Adaptation</text><text x="5037.71px" y="1375.48px" style="font-family:'Helvetica-Bold', 'Helvetica';font-weight:700;font-size:54.167px;">Outcome</text><path d="M2041.61,889.658l0,-41.568l246.077,0l0,-38.599l83.607,59.383l-83.607,59.384l0,-38.6l-246.077,0Z" style="fill:#c90000;"/><path d="M730.266,613.539l0,-41.568l246.077,-0l0,-38.599l83.607,59.383l-83.607,59.383l0,-38.599l-246.077,0Z" style="fill:#c90000;"/><path d="M4641.1,613.539l0,-41.568l246.077,-0l0,-38.599l83.607,59.383l-83.607,59.383l0,-38.599l-246.077,0Z" style="fill:#c90000;"/><path d="M730.266,1165.78l0,-41.569l246.077,0l0,-38.599l83.607,59.383l-83.607,59.384l0,-38.599l-246.077,-0Z" style="fill:#c90000;"/><path d="M4641.1,1165.78l0,-41.569l246.077,0l0,-38.599l83.607,59.383l-83.607,59.384l0,-38.599l-246.077,-0Z" style="fill:#c90000;"/><path d="M3314.09,889.658l0,-41.568l246.077,0l0,-38.599l83.607,59.383l-83.607,59.384l0,-38.6l-246.077,0Z" style="fill:#c90000;"/><g><path d="M1357.62,214.489l41.568,-0l0,105.48l38.599,0l-59.383,83.607l-59.383,-83.607l38.599,0l-0,-105.48Z" style="fill:#c90000;"/><path d="M1543.09,214.489l41.568,-0l0,105.48l38.599,0l-59.383,83.607l-59.383,-83.607l38.599,0l-0,-105.48Z" style="fill:#c90000;"/><path d="M1728.57,214.489l41.568,-0l0,105.48l38.599,0l-59.383,83.607l-59.383,-83.607l38.599,0l-0,-105.48Z" style="fill:#c90000;"/></g><g><path d="M1267.93,979.017c-1.24,-5.088 -6.377,-8.212 -11.465,-6.973l-18.437,4.492c-5.088,1.239 -8.213,6.376 -6.973,11.464l10.582,43.442c1.24,5.088 6.377,8.212 11.465,6.973l18.437,-4.492c5.088,-1.239 8.213,-6.376 6.973,-11.464l-10.582,-43.442Z" style="stroke:#000;stroke-width:4.17px;"/><path d="M1250.14,1026.55c-1.781,0 -3.226,1.446 -3.226,3.226l0,6.45c0,1.78 1.445,3.226 3.226,3.226l47.06,-0c1.78,-0 3.225,-1.446 3.225,-3.226l0,-6.45c0,-1.78 -1.445,-3.226 -3.225,-3.226l-47.06,0Z" style="stroke:#000;stroke-width:4.17px;"/><path d="M1303.63,1028.96c-0.388,-1.737 -2.114,-2.832 -3.851,-2.443l-6.295,1.408c-1.737,0.389 -2.832,2.115 -2.444,3.852l10.822,48.366c0.389,1.737 2.114,2.832 3.852,2.443l6.294,-1.408c1.738,-0.389 2.832,-2.115 2.444,-3.852l-10.822,-48.366Z" style="stroke:#000;stroke-width:4.17px;"/><path d="M1260.29,1051.29c0,31.919 0,39.481 0,31.017" style="fill:none;stroke:#000;stroke-width:8.33px;stroke-linejoin:miter;stroke-miterlimit:1;"/><circle cx="1242.27" cy="960.792" r="8.988" style="stroke:#000;stroke-width:4.17px;"/><clipPath id="_clip11"><rect x="1211.54" y="1000.55" width="71.909" height="57.144"/></clipPath><g clip-path="url(#_clip11)"><path d="M1221.46,991.836l97.852,-0l-24.463,57.045l-57.575,-0l-15.814,-57.045Z" style="fill:none;stroke:#000;stroke-width:8.33px;stroke-linejoin:miter;stroke-miterlimit:1;"/></g></g><path d="M532.729,529.505c6.263,3.981 2.805,20.654 -7.717,37.21c-10.522,16.555 -24.149,26.765 -30.412,22.785c-6.263,-3.981 -2.805,-20.653 7.717,-37.209c10.522,-16.556 24.149,-26.766 30.412,-22.786Z" style="fill:#fff;stroke:#000;stroke-width:4.17px;"/><ellipse cx="541.712" cy="571.677" rx="33.978" ry="46.879" style="fill:#fff;stroke:#000;stroke-width:4.17px;"/><ellipse cx="520.07" cy="472.897" rx="9.906" ry="10.961" style="fill:#fff;stroke:#000;stroke-width:4.17px;"/><ellipse cx="586.989" cy="481.599" rx="10.002" ry="12.553" style="fill:#fff;stroke:#000;stroke-width:4.17px;"/><ellipse cx="507.738" cy="608.439" rx="30.37" ry="12.614" style="fill:#fff;stroke:#000;stroke-width:4.17px;"/><ellipse cx="565.936" cy="615.637" rx="17.01" ry="18.968" style="fill:#fff;stroke:#000;stroke-width:4.17px;"/><path d="M570.716,531.404c6.963,-2.566 18.122,10.295 24.905,28.702c6.782,18.407 6.635,35.434 -0.328,37.999c-6.963,2.566 -18.123,-10.295 -24.905,-28.702c-6.782,-18.407 -6.635,-35.434 0.328,-37.999Z" style="fill:#fff;stroke:#000;stroke-width:4.17px;"/><ellipse cx="549.583" cy="499.336" rx="36.189" ry="36.429" style="fill:#fff;stroke:#000;stroke-width:4.17px;"/><ellipse cx="539.254" cy="519.698" rx="21.935" ry="18.822" style="fill:#fff;stroke:#000;stroke-width:4.17px;"/><ellipse cx="530.924" cy="487.374" rx="3.092" ry="4.259" style="fill:#fff;stroke:#000;stroke-width:4.17px;"/><ellipse cx="558.716" cy="491.554" rx="3.401" ry="4.447" style="fill:#fff;stroke:#000;stroke-width:4.17px;"/><ellipse cx="536.342" cy="516.185" rx="3.401" ry="4.447" style="fill:#fff;stroke:#000;stroke-width:4.17px;"/><path d="M527.767,528.228c8.344,-1.648 -1.897,-6.517 8.344,-1.648l10.242,4.869" style="fill:#fff;stroke:#000;stroke-width:4.17px;"/></svg>