<?xml version="1.0" encoding="UTF-8" standalone="no"?>
<!-- Created with Inkscape (http://www.inkscape.org/) -->

<svg
   version="1.1"
   id="svg1"
   width="1890"
   height="1887"
   viewBox="0 0 1890 1887"
   xmlns="http://www.w3.org/2000/svg"
   xmlns:svg="http://www.w3.org/2000/svg">
  <defs
     id="defs1" />
  <g
     id="g1">
    <path
       style="fill:#000000"
       d="M 908.5,1751.9145 C 832.11213,1748.1732 767.8496,1736.3587 696,1712.8469 544.76586,1663.3576 413.17344,1572.0243 314.41062,1448 214.2967,1322.2791 152.88692,1166.6506 140.98737,1008.5 c -2.72106,-36.16423 -2.72322,-92.0299 -0.005,-128 C 152.0917,733.49523 206.43886,587.14796 294.60869,466.81173 406.57385,313.99909 567.49882,206.09041 752.71874,159.62474 c 125.3805,-31.45389 265.45306,-31.30562 389.97176,0.41278 151.2205,38.52014 282.7268,115.10677 389.7153,226.96248 120.9343,126.43586 198.9111,293.64519 218.0151,467.5 3.4003,30.94382 4.0283,44.82531 4.0487,89.5 0.028,62.35 -2.9846,97.1332 -13.0799,151 -28.2686,150.8355 -102.9554,296.2776 -209.0011,407 -99.1268,103.4984 -216.4436,175.2708 -355.6466,217.5784 -83.645,25.422 -177.76169,36.7676 -268.242,32.3361 z m 77.55011,-288.9478 c 114.35079,-8.7849 220.09859,-53.7585 305.40119,-129.8844 15.2972,-13.6515 41.999,-41.1277 54.4569,-56.0361 53.0895,-63.5325 89.7565,-137.0353 108.0242,-216.5462 18.9618,-82.53225 16.7662,-174.98233 -6.0799,-256 C 1424.1371,720.3995 1380.9792,646.09323 1319,582.65111 c -27.0905,-27.72994 -52.2501,-48.99209 -81.5,-68.87486 -72.3597,-49.18689 -149.3402,-77.08198 -240,-86.96774 -18.95359,-2.06675 -86.94982,-1.73395 -106,0.5188 -66.01211,7.80616 -123.00368,24.67079 -178,52.67278 C 600.57613,537.49655 510.56189,635.55665 463.81778,752 c -53.00661,132.04376 -48.56805,283.3384 12.107,412.6841 43.73085,93.2245 118.57622,175.2099 208.61343,228.5147 66.42863,39.3278 143.09401,63.4944 220.96179,69.6518 15.86444,1.2545 64.8136,1.3251 80.55011,0.1161 z"
       id="path1" />
  </g>
</svg>
