<?xml version="1.0" encoding="UTF-8" standalone="no"?>
<!-- Created with Inkscape (http://www.inkscape.org/) -->

<svg
   version="1.1"
   id="svg1"
   width="1890"
   height="1887"
   viewBox="0 0 1890 1887"
   xmlns="http://www.w3.org/2000/svg"
   xmlns:svg="http://www.w3.org/2000/svg">
  <defs
     id="defs1" />
  <g
     id="g1">
    <path
       style="fill:#000000"
       d="M 898,1866.9722 C 804.71042,1861.7695 718.90819,1844.3608 633.5,1813.307 481.62372,1758.0858 348.56517,1665.7724 243.88539,1543 179.47249,1467.4541 128.30523,1383.3111 91.280775,1292.0461 52.986993,1197.6523 31.379891,1102.7777 24.882975,1000.5 c -1.553705,-24.4592 -1.553705,-87.5408 0,-112 C 33.012031,760.52838 65.536653,640.8776 123.01345,527.5 173.72624,427.46497 240.57974,339.46909 324,262.95159 412.47767,181.79516 518.52846,117.39962 631,76.53683 701.80092,50.813673 770.22342,34.642384 842.5,26.549938 c 57.70886,-6.46137 129.33649,-7.21215 188,-1.970561 115.0225,10.277264 226.1875,42.053964 330.5,94.473903 136.6,68.64534 253.506,169.62119 342.2887,295.64673 83.003,117.8215 138.9755,259.76193 158.642,402.29999 9.3495,67.7626 11.0284,147.89682 4.5255,216 -10.7882,112.9814 -41.6318,220.2279 -92.8934,323 -95.6416,191.7476 -254.8079,344.4978 -449.7292,431.6002 -98.446,43.9915 -198.1353,69.3232 -306.8336,77.9683 -22.95889,1.826 -95.98322,2.6874 -119,1.4037 z"
       id="path1" />
  </g>
</svg>
