<?xml version="1.0" encoding="UTF-8" standalone="no"?>
<!-- Created with Inkscape (http://www.inkscape.org/) -->

<svg
   version="1.1"
   id="svg1"
   width="1890"
   height="1887"
   viewBox="0 0 1890 1887"
   xmlns="http://www.w3.org/2000/svg"
   xmlns:svg="http://www.w3.org/2000/svg">
  <defs
     id="defs1" />
  <g
     id="g1">
    <path
       style="fill:#000000"
       d="m 921.5,1290.4066 c -51.89061,-5.0702 -87.4678,-15.1427 -130.53263,-36.9559 C 707.11664,1210.9787 644.70641,1137.2063 615.53334,1046.0779 605.124,1013.562 600.76162,983.56412 600.76162,944.5 c 0,-42.28226 4.94625,-73.17369 17.61288,-110 27.15896,-78.96056 80.14057,-144.59635 151.14402,-187.24342 34.38502,-20.6528 77.016,-37.0465 113.48148,-43.63916 23.95842,-4.33149 33.0326,-5.04709 64,-5.04709 37.32833,0 55.3706,2.09604 85.5,9.93289 98.1384,25.52641 181.1967,93.52003 225.9846,184.99678 17.5396,35.82381 27.3684,68.58961 32.6968,109 1.773,13.44578 1.7885,70.37297 0.023,84 -3.9514,30.4987 -9.8518,53.7527 -20.6977,81.5719 -37.6817,96.6517 -115.1463,171.0687 -213.4438,205.0466 -21.3277,7.3722 -39.6157,11.6063 -66.71281,15.4456 -10.32111,1.4623 -59.32049,2.7736 -68.85009,1.8425 z m 51.76475,-175.0008 c 36.54015,-5.0211 71.24205,-23.3517 98.92135,-52.2534 50.5826,-52.8164 62.2543,-131.23879 29.1863,-196.1034 -17.4371,-34.20369 -45.7292,-62.01206 -79.8724,-78.50663 -62.81515,-30.34601 -137.63813,-19.61985 -189.50893,27.16684 -17.47466,15.76188 -30.03047,32.41734 -40.55049,53.79079 -7.39279,15.01988 -11.45407,26.88146 -14.6353,42.7446 -1.91394,9.54383 -2.25719,14.44879 -2.25719,32.2554 0,17.80661 0.34325,22.71157 2.25719,32.2554 12.30693,61.3682 57.07339,112.3313 116.04821,132.1117 25.0603,8.4053 51.29965,10.539 80.41126,6.5387 z"
       id="path1" />
  </g>
</svg>
