<?xml version="1.0" encoding="UTF-8" standalone="no"?>
<!-- Created with Inkscape (http://www.inkscape.org/) -->

<svg
   version="1.1"
   id="svg1"
   width="1890"
   height="1887"
   viewBox="0 0 1890 1887"
   xmlns="http://www.w3.org/2000/svg"
   xmlns:svg="http://www.w3.org/2000/svg">
  <defs
     id="defs1" />
  <g
     id="g1">
    <path
       style="fill:#000000"
       d="m 898.5,1866.9786 c -92.57352,-4.9771 -179.48929,-22.5805 -265,-53.6716 C 481.62372,1758.0858 348.56517,1665.7724 243.88539,1543 151.59826,1434.7622 86.583961,1308.8836 50.978583,1169.5 14.269932,1025.7974 14.286866,863.18138 51.025464,719.30953 77.65258,615.03521 120.50362,518.9472 179.82187,430.5 244.02143,334.77446 325.14084,252.33537 421,185.39827 483.89143,141.48207 558.03963,103.04455 631,76.53683 701.80092,50.813673 770.22342,34.642384 842.5,26.549938 c 57.44283,-6.431584 129.75913,-7.191029 188,-1.974321 115.1401,10.313239 226.1869,42.057399 330.5,94.477663 136.6,68.64534 253.506,169.62119 342.2887,295.64673 83.003,117.8215 138.9755,259.76193 158.642,402.29999 9.2726,67.20469 10.9094,146.11555 4.4804,216 -12.5689,136.6268 -58.5694,274.1663 -131.4402,393 -97.6564,159.2527 -241.5723,285.8285 -411.1373,361.6002 -98.7295,44.1182 -197.4918,69.1833 -307.2175,77.9696 -22.60048,1.8097 -94.67059,2.6693 -118.1161,1.4088 z m 115,-117.406 c 87.7428,-7.6738 164.0491,-26.3793 244.826,-60.0159 176.4574,-73.4791 322.0049,-208.4904 408.0989,-378.5567 27.7251,-54.7668 49.8186,-113.2962 63.9824,-169.5 32.2326,-127.9037 32.2273,-266.60215 -0.015,-394 C 1695.2302,608.56655 1623.2836,480.59004 1523.0329,378.65585 1423.0961,277.04076 1301.9287,205.53404 1162.9728,166.16713 1113.6803,152.20231 1064.227,143.50393 1007.5,138.82087 982.88881,136.78911 905.89499,137.09052 880.50723,139.31802 810.48857,145.46138 749.88905,158.1979 686.24527,180.14707 587.17322,214.31457 500.5618,263.77393 420.35501,331.98342 389.93406,357.854 343.52439,405.86409 317.38915,438.5 228.10557,549.99127 169.29051,683.90152 148.07271,824 c -10.26967,67.80936 -11.52427,145.42792 -3.47519,215 15.09368,130.4618 65.09258,261.2507 141.25513,369.5 28.92933,41.1171 58.30744,75.6522 95.29007,112.0174 68.39128,67.2494 144.51563,119.5471 231.54466,159.0721 88.06287,39.9945 182.72783,64.2395 274.81262,70.3832 8.8,0.5871 18.25,1.2312 21,1.4313 13.02027,0.9474 88.22578,-0.3643 105,-1.8314 z"
       id="path2" />
    <path
       style="fill:#000000"
       d="m 898.5,1866.9786 c -92.57352,-4.9771 -179.48929,-22.5805 -265,-53.6716 C 481.62372,1758.0858 348.56517,1665.7724 243.88539,1543 151.59826,1434.7622 86.583961,1308.8836 50.978583,1169.5 14.269932,1025.7974 14.286866,863.18138 51.025464,719.30953 77.65258,615.03521 120.50362,518.9472 179.82187,430.5 244.02143,334.77446 325.14084,252.33537 421,185.39827 483.89143,141.48207 558.03963,103.04455 631,76.53683 701.80092,50.813673 770.22342,34.642384 842.5,26.549938 c 57.44283,-6.431584 129.75913,-7.191029 188,-1.974321 115.1401,10.313239 226.1869,42.057399 330.5,94.477663 136.6,68.64534 253.506,169.62119 342.2887,295.64673 83.003,117.8215 138.9755,259.76193 158.642,402.29999 9.2726,67.20469 10.9094,146.11555 4.4804,216 -12.5689,136.6268 -58.5694,274.1663 -131.4402,393 -97.6564,159.2527 -241.5723,285.8285 -411.1373,361.6002 -98.7295,44.1182 -197.4918,69.1833 -307.2175,77.9696 -22.60048,1.8097 -94.67059,2.6693 -118.1161,1.4088 z m 115,-117.406 c 87.7428,-7.6738 164.0491,-26.3793 244.826,-60.0159 176.4574,-73.4791 322.0049,-208.4904 408.0989,-378.5567 27.7251,-54.7668 49.8186,-113.2962 63.9824,-169.5 32.2326,-127.9037 32.2273,-266.60215 -0.015,-394 C 1695.2302,608.56655 1623.2836,480.59004 1523.0329,378.65585 1423.0961,277.04076 1301.9287,205.53404 1162.9728,166.16713 1113.6803,152.20231 1064.227,143.50393 1007.5,138.82087 982.88881,136.78911 905.89499,137.09052 880.50723,139.31802 810.48857,145.46138 749.88905,158.1979 686.24527,180.14707 587.17322,214.31457 500.5618,263.77393 420.35501,331.98342 389.93406,357.854 343.52439,405.86409 317.38915,438.5 228.10557,549.99127 169.29051,683.90152 148.07271,824 c -10.26967,67.80936 -11.52427,145.42792 -3.47519,215 15.09368,130.4618 65.09258,261.2507 141.25513,369.5 28.92933,41.1171 58.30744,75.6522 95.29007,112.0174 68.39128,67.2494 144.51563,119.5471 231.54466,159.0721 88.06287,39.9945 182.72783,64.2395 274.81262,70.3832 8.8,0.5871 18.25,1.2312 21,1.4313 13.02027,0.9474 88.22578,-0.3643 105,-1.8314 z"
       id="path1" />
  </g>
</svg>
