<?xml version="1.0" encoding="UTF-8" standalone="no"?>
<!-- Created with Inkscape (http://www.inkscape.org/) -->

<svg
   version="1.1"
   id="svg1"
   width="1890"
   height="1887"
   viewBox="0 0 1890 1887"
   xmlns="http://www.w3.org/2000/svg"
   xmlns:svg="http://www.w3.org/2000/svg">
  <defs
     id="defs1" />
  <g
     id="g1">
    <path
       style="fill:#000000"
       d="m 928.25152,1116.9299 c -50.20287,-4.8543 -98.33088,-34.5032 -126.50097,-77.9299 -21.09743,-32.5236 -30.38042,-68.55693 -27.6484,-107.32164 1.61895,-22.97134 7.04838,-43.01916 17.08406,-63.0817 24.70671,-49.39171 68.23195,-83.10608 121.71224,-94.27753 11.24054,-2.34803 14.86962,-2.6365 33.60155,-2.67097 17.82269,-0.0328 22.71481,0.30049 32.33379,2.20283 44.50551,8.80181 83.05481,33.62629 109.70901,70.64901 7.8656,10.9253 19.3524,33.62552 23.4468,46.33564 10.9755,34.07036 10.9777,73.20201 0.01,107.32872 -4.0139,12.48474 -15.5486,35.28004 -23.3471,46.13924 -29.9636,41.7233 -75.6426,68.3237 -124.79881,72.6747 -12.81016,1.1339 -23.52207,1.1193 -35.59827,-0.048 z"
       id="path1" />
  </g>
</svg>
