<?xml version="1.0" encoding="UTF-8" standalone="no"?>
<!-- Created with Inkscape (http://www.inkscape.org/) -->

<svg
   version="1.1"
   id="svg1"
   width="1890"
   height="1887"
   viewBox="0 0 1890 1887"
   xmlns="http://www.w3.org/2000/svg"
   xmlns:svg="http://www.w3.org/2000/svg">
  <defs
     id="defs1" />
  <g
     id="g1">
    <path
       style="fill:#000000"
       d="M 927.12935,1463.9089 C 878.15097,1461.8824 832.0138,1453.7764 788,1439.4647 c -28.46672,-9.2563 -58.13411,-21.4718 -77.5,-31.9104 -27.06561,-14.5889 -24.71075,-13.2778 -31.55843,-17.5701 -3.05714,-1.9163 -6.30982,-3.9342 -7.22818,-4.4842 -3.76448,-2.2545 -30.44548,-20.5255 -32.73845,-22.4191 -3.62411,-2.9928 -4.09047,-3.3563 -8.47494,-6.6054 -2.2,-1.6303 -4.225,-3.1917 -4.5,-3.4698 -0.275,-0.2781 -2.525,-2.0653 -5,-3.9715 -21.07644,-16.2328 -53.05088,-47.7467 -74.84033,-73.7623 -14.84291,-17.7218 -38.81841,-52.5029 -51.88676,-75.2719 -35.95996,-62.653 -58.07827,-133.7989 -65.4416,-210.5 -1.62014,-16.87641 -1.62014,-73.12359 0,-90 6.50314,-67.74078 23.64198,-128.46629 52.63677,-186.5 9.32313,-18.66045 27.89586,-50.12075 36.60198,-62 1.4108,-1.925 6.33884,-8.675 10.9512,-15 25.33179,-34.7379 59.51014,-70.2161 93.47874,-97.03389 4.4,-3.47375 8.225,-6.5861 8.5,-6.91634 C 632.38396,530.38781 671.55848,503 672.55173,503 c 0.22519,0 3.00567,-1.68038 6.17885,-3.73418 3.17318,-2.0538 6.66942,-4.23326 7.76942,-4.84324 1.1,-0.60999 3.8,-2.13606 6,-3.39128 55.28479,-31.54295 121.77045,-53.63484 186.5,-61.97031 42.77952,-5.50889 90.78296,-5.68608 132.5,-0.48909 72.2915,9.00587 143.6349,33.8658 204.6401,71.30775 1.452,0.89119 5.052,3.05696 8,4.81282 4.5503,2.71022 27.2852,18.47865 30.3599,21.0569 0.55,0.4612 5.275,4.0425 10.5,7.95844 5.225,3.91594 10.9314,8.39616 12.6808,9.95604 1.7494,1.55988 5.5602,4.86115 8.4683,7.33615 18.9744,16.14821 45.0338,42.65333 59.8509,60.87447 1.925,2.36724 3.95,4.82641 4.5,5.46481 0.55,0.63839 2.1865,2.73572 3.6366,4.66072 1.4502,1.925 3.4752,4.47596 4.5,5.66881 1.8851,2.19408 2.3283,2.78323 10.3245,13.72616 7.0398,9.63408 30.0389,44.91488 30.0389,46.07992 0,0.20366 3.2805,6.36763 7.2901,13.6977 13.3248,24.35993 25.8435,53.95858 35.6273,84.2355 24.7377,76.55337 31.01,157.7793 18.5795,240.60481 -8.2907,55.2426 -30.5207,120.4576 -56.8241,166.7024 -2.5701,4.5184 -4.6728,8.437 -4.6728,8.708 0,1.5083 -27.8262,43.7292 -33.4063,50.6876 -1.1515,1.436 -2.7687,3.6154 -3.5937,4.8431 -0.825,1.2277 -2.5285,3.4278 -3.7856,4.8891 -1.257,1.4613 -4.166,5.1319 -6.4643,8.1569 -27.913,36.7389 -86.814,89.484 -127.5904,114.2558 -2.9371,1.7843 -6.5371,3.97 -8,4.857 -34.2963,20.7969 -66.0822,35.4994 -104.6597,48.4103 -46.6091,15.5989 -93.9878,24.3921 -140,25.9831 -8.8,0.3042 -18.25,0.6903 -21,0.858 -2.75,0.1676 -13.26679,-0.037 -23.37065,-0.4553 z m 62.28209,-176.4238 c 21.85236,-2.5669 48.52666,-8.6642 69.10936,-15.7972 37.136,-12.8695 72.7846,-32.5816 104.8089,-57.9548 12.9116,-10.23 41.8954,-39.1549 52.4536,-52.3471 50.5069,-63.1066 76.4268,-136.6628 76.4268,-216.886 0,-56.56924 -11.5013,-105.19164 -36.6643,-155 C 1206.9923,693.39168 1118.6693,626.37305 1012.5,605.0793 979.66303,598.49338 930.45006,597.4239 896,602.54756 818.49665,614.07442 746.05121,652.6315 692.70868,710.74375 c -28.48599,31.03312 -52.88835,70.18194 -68.57791,110.01985 -23.39429,59.4013 -29.01094,132.60156 -15.06619,196.3535 6.74706,30.8459 14.27547,52.2032 28.43559,80.6687 32.16064,64.6514 81.87876,116.0273 146.2258,151.1015 42.2695,23.0402 90.22066,37.1047 136.77403,40.1171 16.90039,1.0937 53.54583,0.2857 68.91144,-1.5193 z"
       id="path1" />
  </g>
</svg>
