<?xml version="1.0" encoding="UTF-8" standalone="no"?>
<!-- Created with Inkscape (http://www.inkscape.org/) -->

<svg
   version="1.1"
   id="svg1"
   width="2052"
   height="1623"
   viewBox="0 0 2052 1623"
   xmlns="http://www.w3.org/2000/svg"
   xmlns:svg="http://www.w3.org/2000/svg">
  <defs
     id="defs1" />
  <g
     id="g1">
    <path
       style="fill:#000000"
       d="m 438.5,1582.5196 -46,0.2785 -3,-0.4319 -3,-0.4318 -10.69704,-1.9873 -10.69705,-1.9872 -11.80295,-4.0589 -11.80296,-4.059 -10.90127,-5.4675 -10.90127,-5.4676 -9.59873,-6.3922 -9.59873,-6.3922 -9.4515,-8.3163 -9.45149,-8.3163 -6.91851,-7.995 -6.91851,-7.9949 -6.38076,-9.1441 -6.38075,-9.1441 -6.39249,-12.3559 -6.39248,-12.3559 -3.14714,-8.6821 -3.14714,-8.6822 -2.49441,-9.8178 -2.49441,-9.8179 -1.4652,-12.4939 -1.46521,-12.4938 0.002,-87.0062 0.002,-87.0061 1.02177,-13.5 1.02178,-13.5 1.93532,-13 1.93532,-13 2.06053,-10 2.06054,-10 2.94303,-11.0615 2.94304,-11.0615 3.89616,-11.4385 3.89615,-11.4385 4.53784,-11 4.53784,-11 4.5368,-9.7325 4.53679,-9.7325 5.72014,-10.2675 5.72014,-10.2675 7.30466,-11.1325 7.30466,-11.1325 6.20808,-7.8675 6.20807,-7.8675 5.97427,-6.7929 5.97427,-6.7929 -5.60077,-11.70711 -5.60077,-11.70709 -3.97143,-10.70572 -3.97143,-10.70573 -2.52438,-9.29427 L 296.0889,939.5 293.61413,926 291.13935,912.5 290.07309,901 289.00683,889.5 289.00342,744.25 289,599 H 165.95349 42.906977 L 43.280889,463.25 43.6548,327.5 l 1.626161,-11 1.626161,-11 1.072546,-6 1.072547,-6 1.580845,-7 1.580846,-7 2.982338,-10.5 2.982338,-10.5 5.530896,-14 5.530895,-14 5.889244,-11.75344 5.889244,-11.75343 6.390012,-10.74657 L 93.798885,185.5 101.2861,175 l 7.48722,-10.5 7.99765,-9.5 7.99765,-9.5 12.36569,-12.06596 12.36569,-12.06596 10.20219,-8.10501 10.20219,-8.105 11.29781,-7.498064 11.29781,-7.498061 10.86035,-6.016107 10.86035,-6.016107 12.13965,-5.447116 12.13965,-5.447116 10,-3.562594 10,-3.562594 9,-2.597636 9,-2.597636 12,-2.423939 12,-2.423939 13,-1.755431 13,-1.755432 55,-0.02815 55,-0.02815 11,1.278265 11,1.278265 12.5,2.044293 12.5,2.044293 12.5,2.955805 12.5,2.955804 11.5,3.578499 11.5,3.578498 13.55609,5.279265 13.55609,5.279264 10.44391,4.9546 10.44391,4.9546 13.5,7.774431 13.5,7.774428 11,7.53689 11,7.53689 11.5,9.17859 11.5,9.17858 11,10.05887 11,10.05887 10.7979,11.97169 10.79791,11.9717 8.09244,10.3888 8.09244,10.38881 6.67266,10 6.67266,10 4.82433,7.80429 4.82434,7.80428 1.11266,-0.47768 1.11266,-0.47769 13,-5.67049 13,-5.6705 14.5,-5.79109 14.5,-5.79108 15,-5.1833 15,-5.18329 18.71551,-5.41486 18.71551,-5.41485 17.75014,-4.1036 17.75014,-4.10361 15.53435,-2.84909 15.53435,-2.84909 12.16402,-1.58596 12.16402,-1.58596 14.33598,-1.46987 14.33598,-1.46987 34.5,-1.1053 34.5,-1.10529 128.5,0.49018 128.5,0.49018 14,1.1089 14,1.1089 14,1.52591 14,1.52592 13.5,1.99204 13.5,1.99204 13,2.55205 13,2.55206 18.0345,4.39056 18.0345,4.39056 18.4293,5.60125 18.4293,5.60126 15.0362,5.56109 15.0362,5.5611 14,5.79243 14,5.79244 6,2.67879 6,2.6788 17.5,8.75627 17.5,8.75627 12,6.80504 12,6.80504 10.5,6.46325 10.5,6.46324 15.5,10.5375 15.5,10.5375 12,9.05837 12,9.05837 12.5,10.4524 12.5,10.45239 13,11.70418 13,11.70417 14.0236,14.37673 14.0237,14.37672 10.488,12 10.488,12 8.072,10 8.072,10 10.0321,13.5 10.0321,13.5 10.5317,16 10.5317,16 9.2234,16 9.2233,16 9.7471,19.5 9.747,19.5 5.0393,11.5 5.0394,11.5 4.4701,11 4.4702,11 6.1084,17.5 6.1084,17.5 3.5567,11.80872 3.5567,11.80872 4.488,17.69128 4.4881,17.69128 3.4105,18 3.4105,18 2.0615,15 2.0615,15 1.586,15.5 1.586,15.5 0.5116,47 0.5117,47 10.2548,10.5 10.2548,10.5 6.1132,8.29367 6.1132,8.29367 5.4709,9.70633 5.4708,9.70633 4.472,11 4.4719,11 2.5607,9.5 2.5606,9.5 1.5576,9.5 1.5575,9.5 0.6,13.5 0.6,13.5 -1.189,11 -1.1891,11 -2.0452,9.4836 -2.0452,9.4837 -4.0147,11.5163 -4.0147,11.5164 -5.514,10.8443 -5.514,10.8443 -5.6917,8.6557 -5.6918,8.6557 -5.3179,6.5 -5.3179,6.5 -6.6065,6.8287 -6.6066,6.8288 -7.5,6.2576 -7.5,6.2576 -7.5,5.0243 -7.5,5.0243 -8.5,4.5177 -8.5,4.5177 -9.3667,3.8125 -9.3667,3.8124 0.6289,5.0592 0.629,5.0592 1.0485,13 1.0485,13 -0.39,88 -0.39,88 -1.2532,7.4698 -1.2532,7.4699 -2.8545,11.3023 -2.8544,11.3022 -4.4644,10.9903 -4.4645,10.9902 -5.1365,9.2377 -5.1365,9.2376 -6.7122,9.4199 -6.7121,9.42 -9.9512,10.4302 -9.9512,10.4302 -7.154,5.8458 -7.154,5.8458 -8.3948,5.6459 -8.3948,5.646 -14,6.8902 -14,6.8902 -9.3356,3.0164 -9.3357,3.0164 -10.1643,2.2515 -10.1644,2.2515 h -55 -55 l -11.3927,-2.3075 -11.3927,-2.3075 -10.6073,-3.5546 -10.6073,-3.5546 -11,-5.3499 -11,-5.3499 -9.3583,-6.0713 -9.3583,-6.0712 -5.6417,-4.5363 -5.6417,-4.5362 -9.3516,-9.1805 -9.3516,-9.1805 -6.3167,-8.0391 -6.3167,-8.0391 -5.1871,-8.3632 -5.187,-8.3633 -4.8936,-10.0069 -4.8937,-10.0069 -4.0241,-12.3691 -4.0241,-12.3692 -2.0856,-11.2216 -2.0857,-11.2216 -0.4918,-41.25 -0.4917,-41.25 H 1211.3995 965 v 34.894 l 0,34.8941 -1.04521,10.3559 -1.04521,10.356 -2.54715,11.5 -2.54714,11.5 -3.51256,9.5 -3.51255,9.5 -6.42068,12.5 -6.42069,12.5 -6.44149,9 -6.44149,9 -7.20997,8 -7.20997,8 -8.07295,7.3527 -8.07294,7.3527 -11.88904,7.8984 -11.88904,7.8984 -11.11096,5.429 -11.11096,5.4291 -10.53044,3.4914 -10.53045,3.4914 -10.96955,2.2886 -10.96956,2.2886 -50.38159,0.3492 -50.38159,0.3492 -10.70323,-1.5697 -10.70324,-1.5696 -9.91517,-2.5745 -9.91518,-2.5744 -8.5,-3.2803 -8.5,-3.2803 -10,-5.0298 -10,-5.0299 -9,-5.9306 -9,-5.9307 -6.03719,-5.0338 -6.03718,-5.0338 -3.46282,2.9505 -3.46281,2.9505 -7,5.2064 -7,5.2065 -6.19642,3.7422 -6.19642,3.7423 -8.35479,3.8599 -8.35479,3.86 -10.44879,3.5557 -10.44879,3.5558 -9.07494,2.0078 -9.07494,2.0078 -11.42506,1.6572 -11.42506,1.6572 z m 8,-122.0509 24,-0.4016 7,-1.0574 7,-1.0574 6.5,-1.6023 6.5,-1.6022 6.41159,-2.8845 6.4116,-2.8844 5.43707,-4.4761 5.43708,-4.4761 3.00227,-3.7634 3.00228,-3.7633 2.47617,-4.8689 2.47616,-4.869 1.40553,-6.631 1.40552,-6.6311 0.0174,-97.003 0.0174,-97.0031 61.48221,-61.4761 61.48221,-61.4761 0.28653,161.4791 0.28653,161.4792 1.63811,4.5994 1.63812,4.5995 2.72242,5.3724 2.72242,5.3724 6.12072,6.108 6.12073,6.1079 7.5,3.6709 7.5,3.671 7.83616,1.9804 7.83616,1.9803 13.66384,1.1521 13.66384,1.152 20,-0.5986 20,-0.5986 9.67599,-1.499 9.67598,-1.499 6.32402,-2.121 6.32401,-2.121 6,-3.1337 6,-3.1337 6.15839,-6.1959 6.15838,-6.1959 2.9877,-6.335 2.9877,-6.3349 1.28722,-5 1.28723,-5 0.35371,-98.25 0.35371,-98.25 h 368.41276 368.4129 l 0.3604,97.25 0.3604,97.25 1.7773,6 1.7772,6 3.6363,7 3.6363,7 7.5449,7.5 7.545,7.5 7.4812,3.7694 7.4813,3.7694 7,1.4632 7,1.4633 38,0 38,0 6.3969,-1.5078 6.3969,-1.5079 7.1031,-3.6805 7.1031,-3.6804 8.0469,-8.0469 8.0469,-8.0469 3.6804,-7.1031 3.6805,-7.1031 1.5079,-6.3969 1.5078,-6.3969 0.015,-89.2894 0.015,-89.2894 -1.036,-9.7106 -1.036,-9.7106 -2.0587,-10.5 -2.0586,-10.5 -3.5222,-11 -3.5221,-11 -3.9341,-9.5 -3.9341,-9.5 -5.5456,-10.5 -5.5455,-10.5 -6.2733,-9.5 -6.2733,-9.5 -5.633,-7.5 -5.6331,-7.5 65.2528,-0.52 65.2528,-0.52 5.5,-1.8161 5.5,-1.8162 6.1079,-3.3833 6.1079,-3.3833 5.1856,-4.6624 5.1857,-4.6623 4.3217,-6.1182 4.3217,-6.1182 2.6833,-6.792 2.6834,-6.792 0.9167,-8.0379 0.9167,-8.0379 -0.942,-7.1701 -0.942,-7.1701 -1.1214,-4 -1.1214,-4 -3.5639,-6.8226 -3.564,-6.82266 -6.0879,-6.28858 -6.088,-6.28857 -5.6722,-3.61974 -5.6721,-3.61973 -7.3279,-2.45006 -7.3278,-2.45005 -6.1601,-0.688 -6.1602,-0.68801 -0.4589,-80.131 -0.4588,-80.131 -1.6185,-15.12611 -1.6185,-15.12612 -1.5715,-11.37388 -1.5715,-11.37389 -3.0083,-15.5 -3.0083,-15.5 -2.9815,-12 -2.9815,-12 -4.0436,-13.5 -4.0437,-13.5 -6.4244,-17.24611 -6.4245,-17.24611 -7.897,-17.25389 -7.8971,-17.25389 -7.9385,-15 -7.9384,-15 -5.3207,-9 -5.3206,-9 -8.1352,-12.5 -8.1351,-12.5 -6.8606,-9.5 -6.8606,-9.5 -9.3147,-11.71839 -9.3148,-11.71839 -7.6785,-8.78161 -7.6786,-8.78161 -14.5879,-14.84072 -14.5879,-14.84072 -14,-12.205 -14,-12.20499 -11,-8.51266 -11,-8.51265 -8.5,-6.06382 -8.5,-6.06382 -11.0328,-7.0164 -11.0327,-7.01639 -7.9673,-4.74934 -7.9672,-4.74935 -15.917,-8.37529 -15.9169,-8.37528 -14.0831,-6.4224 -14.083,-6.42239 -12.5,-4.94896 -12.5,-4.94897 -17.4098,-5.65265 -17.4099,-5.65265 -13.5901,-3.51495 -13.5902,-3.51494 -14.5,-2.91333 -14.5,-2.91332 -17.5,-2.48246 -17.5,-2.48245 -14,-1.30205 -14,-1.30205 h -159 -159 l -16.5,1.77084 -16.5,1.77084 -14,2.0514 -14,2.0514 -16.5,3.43324 -16.5,3.43325 -13,3.52268 -13,3.52268 -15.5,5.09646 -15.5,5.09646 -11,4.24802 -11,4.24802 -16,7.21638 -16,7.21637 -10.5,5.54017 -10.5,5.54018 -12.5,7.06488 -12.5,7.06489 -11.5,7.43953 -11.5,7.43954 -10,7.05989 -10,7.0599 -14,11.25876 -14,11.25876 -4.25,3.63066 -4.25,3.63067 -0.0206,-7.83293 -0.0206,-7.83294 -0.96886,-14.9606 -0.96887,-14.96059 -1.57434,-9.53941 -1.57434,-9.5394 -2.90398,-11.07904 -2.90398,-11.07904 -3.14711,-8.92096 -3.14712,-8.92096 -4.04059,-9 -4.0406,-9 -5.49665,-10 -5.49666,-10 -6.77544,-10 -6.77544,-10 -7.95039,-9.5 -7.9504,-9.5 -10.37202,-10.03521 -10.37202,-10.03521 -7,-5.55545 -7,-5.55545 -10.5,-7.08458 -10.5,-7.08459 -9.5,-5.14508 -9.5,-5.14509 -12,-5.31983 -12,-5.31983 -11.29496,-3.57178 -11.29496,-3.57179 -12.20504,-2.48276 -12.20504,-2.48276 -10,-1.12658 -10,-1.12659 -51.5,0.36252 -51.5,0.36252 -12.27427,2.75091 -12.27427,2.7509 -10.1244,3.52407 -10.1244,3.52408 -10.68745,5.35995 -10.68745,5.35996 -10.53834,7.04685 -10.53834,7.04684 -9.45307,8.41637 -9.45306,8.41638 -7.85654,9.36061 -7.85655,9.36062 -6.22306,9.5 -6.22306,9.5 -5.57845,11.1041 -5.57845,11.1041 -3.95951,11.8959 -3.95952,11.8959 -2.23965,10 -2.23965,10 -0.36787,74.75 -0.36786,74.75 66.92162,0 66.92162,0 8.88099,1.51366 8.88099,1.51365 8,2.60924 8,2.60924 8.5,4.26681 8.5,4.26682 8,5.69686 8,5.69687 7.75835,7.64826 7.75835,7.64827 5.40407,7.51516 5.40407,7.51516 4.12184,7.65247 4.12184,7.65248 3.01605,8.26416 3.01605,8.26417 1.63292,6.58336 1.63293,6.58336 0.61386,157.5 0.61386,157.5 2.62258,11.5 2.62258,11.5 3.17354,9 3.17355,9 5.51086,10.65712 5.51086,10.65711 6.97477,9.34289 6.97477,9.34288 6.17115,6.32914 6.17115,6.32914 7.5,6.09038 7.5,6.09034 5.66546,3.6757 5.66546,3.6756 -17.51228,17.4049 -17.51228,17.4048 -14.82018,15.7322 -14.82018,15.7322 -7.40605,8.7678 -7.40606,8.7678 -7.10267,9.5 -7.10267,9.5 -6.63524,10.5 -6.63523,10.5 -6.85593,14 -6.85593,14 -3.7044,10 -3.7044,10 -2.78849,11 -2.78849,11 -1.63706,13 -1.63707,13 0.29955,94 0.29954,94 2.25168,5.9193 2.25168,5.9192 3.02401,4.7126 3.02402,4.7125 5.45605,5.1601 5.45605,5.1601 7.26556,3.4465 7.26555,3.4464 8,2.0066 8,2.0067 10,0.9401 10,0.9402 z m 26.5399,-1046.55201 -8.5399,-0.0833 -5.76727,-1.39742 -5.76726,-1.39743 -6.17443,-3.06345 -6.17443,-3.06346 -5.05831,-4.15147 -5.0583,-4.15147 -4.58821,-5.28034 -4.5882,-5.28034 -3.17206,-6.27399 -3.17205,-6.274 -1.47238,-7 -1.47237,-7 V 323 286.5 l 1.43377,-6.76606 1.43376,-6.76606 2.79124,-6.21971 2.79124,-6.2197 4.68466,-5.8372 4.68467,-5.8372 5.8372,-4.68467 5.8372,-4.68466 6.22629,-2.79419 6.22628,-2.79419 7.25948,-1.54754 7.25948,-1.54753 8.5,0.57469 8.5,0.5747 5.5,1.61079 5.5,1.6108 6.18033,3.42384 6.18034,3.42385 5.65107,5.16476 5.65106,5.16476 3.71365,5.57526 3.71365,5.57526 1.73637,4 1.73638,4 1.4567,5.5 1.45671,5.5 0.0119,39.70078 0.0119,39.70078 -1.09098,5.29922 -1.09098,5.29922 -3.62711,7.5 -3.62712,7.5 -8.0319,8.01904 -8.03191,8.01903 -7.5,3.72232 -7.5,3.72232 -5.9601,1.50864 L 481.5798,414 Z"
       id="path1" />
  </g>
</svg>
