<?xml version="1.0" encoding="UTF-8" standalone="no"?>
<!-- Created with Inkscape (http://www.inkscape.org/) -->

<svg
   version="1.1"
   id="svg1"
   width="2052"
   height="1623"
   viewBox="0 0 2052 1623"
   xmlns="http://www.w3.org/2000/svg"
   xmlns:svg="http://www.w3.org/2000/svg">
  <defs
     id="defs1" />
  <g
     id="g1">
    <path
       style="fill:#000000"
       d="M 1211.7787,871.25767 1211.4658,773.5 1209.2594,767 c -7.5403,-22.21325 -28.2724,-40.09658 -50.0292,-43.15475 -15.0512,-2.11563 -29.3538,0.8607 -41.7302,8.68396 -7.3632,4.65436 -18.7143,17.12675 -22.3794,24.59011 -6.1716,12.5673 -6.0841,10.90785 -6.1032,115.78335 l -0.017,95.40266 -11.75,-0.63006 c -20.056,-1.07545 -42.9986,-7.40963 -62.6896,-17.30784 -16.08299,-8.08456 -23.62036,-13.49188 -37.29953,-26.75878 L 965,911.7173 l -0.0174,-67.60865 c -0.0193,-75.30863 -0.0515,-75.7382 -6.60033,-88.20065 -4.43086,-8.43195 -15.62923,-20.19235 -23.49189,-24.67092 -10.14911,-5.78093 -17.10707,-7.52703 -30.39042,-7.62646 -9.77038,-0.0731 -13.30061,0.32033 -19,2.11769 -10.11972,3.19136 -18.80443,8.75561 -26.48048,16.96588 -10.44869,11.1759 -14.31826,20.30733 -16.86827,39.80581 l -0.78468,6 -61.43329,-61.06672 C 730.34664,678.14252 716.18595,664.63692 706.5,657.39712 692.80628,647.16169 680.5911,639.43248 667.25,632.56149 l -9.25,-4.76397 0.0312,-96.14876 0.0312,-96.14876 2.21879,-3.5925 c 2.4969,-4.04279 7.10815,-8.19889 23.71879,-21.37768 72.34111,-57.39503 162.3243,-97.16738 252.17657,-111.46141 43.42753,-6.90861 55.91199,-7.28442 226.82343,-6.82785 162.71,0.43466 157.7507,0.27491 197,6.34568 49.6422,7.67827 95.257,21.29458 140.583,41.96493 114.1721,52.06669 203.7249,136.60685 262.6506,247.94883 35.3357,66.76781 54.183,130.30704 61.8463,208.5 0.6699,6.83578 1.328,43.13776 1.6226,89.50538 l 0.4956,78.00538 -2.2035,1.99462 c -2.142,1.93898 -3.8603,2.00224 -61.5991,2.26767 L 1704,969.0461 l -0.02,-93.77305 c -0.012,-56.34971 -0.414,-96.49969 -1.0076,-100.60528 -1.7545,-12.13537 -7.577,-23.09797 -17.5631,-33.06749 -15.0074,-14.9825 -31.8868,-20.58445 -52.9954,-17.58809 -22.1659,3.14645 -42.2153,20.84289 -49.2701,43.48781 -1.3555,4.35079 -1.6006,17.68711 -1.888,102.71166 l -0.3303,97.71165 -3.2128,0.57414 c -1.7671,0.31577 -29.5379,0.44553 -61.7129,0.28834 l -58.5,-0.28579 -0.5187,-99 c -0.4118,-78.57688 -0.793,-99.82518 -1.8481,-103 -6.3529,-19.11568 -23.0046,-35.56768 -41.6332,-41.13402 -8.2999,-2.48004 -26.7283,-2.47515 -35,0.009 -18.8049,5.64814 -35.2374,21.87994 -41.6332,41.12472 -1.0551,3.17482 -1.4363,24.42312 -1.8481,103 l -0.5187,99 -61.2042,0.25767 -61.2042,0.25767 z M 798,658.70666 c 9.40819,-2.88318 16.51858,-7.22442 24.79756,-15.14014 15.16725,-14.50174 21.10266,-31.68946 18.37377,-53.2066 -2.88989,-22.78657 -20.72842,-43.16245 -43.72361,-49.94285 -7.34806,-2.16666 -23.70441,-2.44273 -31.44772,-0.53079 -18.7794,4.63693 -37.88286,23.09975 -43.37752,41.92284 -2.34862,8.04566 -2.98813,18.71891 -1.65915,27.69088 2.76496,18.6664 16.27475,36.66658 34.03667,45.34979 4.675,2.28546 10.975,4.58233 14,5.10416 7.07843,1.22107 23.20935,0.52728 29,-1.24729 z m 247,-0.26259 c 9.6716,-2.87479 17.0964,-7.51172 25.5074,-15.92989 12.799,-12.80988 17.4926,-24.4425 17.4926,-43.3533 0,-17.83736 -5.3984,-30.87784 -17.8748,-43.179 -9.7609,-9.62387 -19.2287,-14.5169 -32.4084,-16.74895 -21.258,-3.60015 -40.32054,2.76374 -55.38566,18.49007 -11.15657,11.64624 -16.30158,24.83165 -16.30158,41.777 0,17.61627 5.4113,30.94879 17.48398,43.07757 9.79443,9.83996 21.19106,15.80633 33.98646,17.7927 5.5805,0.86631 21.9665,-0.28143 27.5,-1.9262 z m 248.1055,-0.84599 c 12.6815,-4.4102 24.005,-13.51285 31.7865,-25.55232 5.7109,-8.8359 8.1536,-16.77079 8.8159,-28.6377 1.0735,-19.23662 -3.7579,-32.29891 -17.0786,-46.1741 -10.2868,-10.71496 -21.3464,-16.56013 -34.6293,-18.30209 -23.489,-3.08041 -43.3418,5.40988 -57.847,24.73898 -6.3969,8.5242 -9.7013,16.63676 -11.2312,27.57357 -1.3648,9.75579 -0.1373,21.43181 3.1872,30.31736 2.6768,7.15431 10.5663,18.09399 17.5605,24.34938 6.9039,6.17469 19.6325,12.71484 27.3305,14.04279 9.1163,1.57261 23.9362,0.48514 32.1055,-2.35587 z m 237.8126,2.30616 c 3.6294,-0.60422 10.3949,-2.90497 15.0819,-5.12891 6.9139,-3.28057 9.9936,-5.54851 16.5043,-12.15424 13.0576,-13.24809 17.7977,-24.74953 17.7713,-43.12109 -0.024,-17.07263 -4.7544,-29.42242 -15.8646,-41.42277 -14.1519,-15.28573 -32.4468,-21.8108 -53.7858,-19.18327 -7.4065,0.91198 -10.8329,1.96057 -18.1917,5.56726 -7.5784,3.7143 -10.379,5.81073 -17.0628,12.77274 -13.3157,13.86991 -18.1469,26.92696 -17.085,46.1741 0.5857,10.61517 2.774,18.61121 7.1188,26.01203 13.8838,23.64932 38.3067,35.01357 65.5136,30.48415 z M 924.11957,472.78218 c 9.97319,-3.67505 15.65988,-7.36869 23.38657,-15.19012 11.8896,-12.03541 17.43778,-25.62064 17.4765,-42.79284 0.0355,-15.74466 -4.75495,-27.98946 -15.4836,-39.57739 -11.32939,-12.23679 -22.44122,-18.2726 -37.58123,-20.41368 -21.0999,-2.98391 -41.12095,5.20493 -56.15749,22.96907 -9.10507,10.75671 -12.73037,21.30077 -12.74845,37.07844 -0.0213,18.62159 4.43375,29.52056 17.4838,42.7725 8.90616,9.04395 18.23964,14.51545 28.92199,16.95474 9.38857,2.14385 26.39166,1.26155 34.70191,-1.80072 z m 244.95253,0.3229 c 18.327,-5.78791 36.4743,-25.30582 41.0077,-44.10508 1.8574,-7.70193 1.5968,-23.15497 -0.5142,-30.5 -5.2385,-18.22703 -21.6789,-35.06917 -40.5656,-41.55692 -8.6704,-2.97838 -26.5376,-3.2723 -35.5,-0.58399 -20.1398,6.04103 -38.297,24.95108 -42.9626,44.74402 -2.8704,12.17712 -1.3268,28.1854 3.7829,39.23168 5.2231,11.29153 16.2731,22.86044 27.857,29.16517 2.5871,1.40811 7.9931,3.45194 12.0133,4.54183 9.4577,2.56405 25.1292,2.1432 34.8815,-0.93671 z m 241.1852,1.42826 c 10.5216,-2.22963 20.0053,-7.74417 29.2509,-17.00872 C 1451.9599,445.04746 1457,432.79427 1457,415 c 0,-17.8919 -4.6083,-28.68062 -17.9609,-42.04944 -13.6347,-13.65125 -24.9661,-18.43769 -43.5391,-18.39123 -17.6855,0.0442 -31.0023,5.94599 -43.8489,19.43305 C 1339.5786,386.66673 1335,397.94274 1335,415 c 0,17.63465 5.4318,30.70756 17.8847,43.04402 15.5499,15.40438 35.4722,21.13021 57.3726,16.48932 z"
       id="path1" />
  </g>
</svg>
