<?xml version="1.0" encoding="UTF-8" standalone="no"?>
<!-- Created with Inkscape (http://www.inkscape.org/) -->

<svg
   version="1.1"
   id="svg1"
   width="2052"
   height="1623"
   viewBox="0 0 2052 1623"
   xmlns="http://www.w3.org/2000/svg"
   xmlns:svg="http://www.w3.org/2000/svg">
  <defs
     id="defs1" />
  <g
     id="g1">
    <path
       style="fill:#000000"
       d="m 1150.25,968.25014 -62.25,-0.26528 0.038,-83.24243 c 0.021,-45.78334 0.4526,-90.21743 0.9593,-98.74243 1.3413,-22.56705 4.5032,-31.0478 16.2622,-43.61825 7.2988,-7.80249 14.0725,-12.334 23.7405,-15.88206 6.8039,-2.49695 8.7531,-2.75243 21,-2.75243 12.2301,0 14.2055,0.25806 21,2.74335 8.9825,3.28561 17.8239,9.34797 24.8584,17.04485 6.3675,6.96704 9.5885,12.37062 12.9566,21.73631 l 2.5995,7.22823 0.5427,98.25046 c 0.2986,54.03776 0.5428,98.14122 0.5428,98.00771 0,-0.13351 -28.0125,-0.36213 -62.25,-0.50803 z m 183.9831,-97.49248 0.4292,-97.25766 2.2665,-7 c 3.3095,-10.22096 7.5182,-17.55406 13.9147,-24.24445 7.3027,-7.63831 14.8037,-12.5557 24.1565,-15.83614 6.673,-2.34052 8.9887,-2.6306 21,-2.6306 12.0113,0 14.327,0.29008 21,2.6306 9.3528,3.28044 16.8538,8.19783 24.1565,15.83614 6.5693,6.87116 10.7223,14.21712 13.9892,24.74445 l 2.3274,7.5 0.013,96.5 0.014,96.5 -61.848,0.25766 -61.848,0.25767 z m 247.8006,95.7829 c -0.9539,-1.14936 -1.1232,-22.83906 -0.7667,-98.25775 0.5035,-106.52842 0.1537,-100.745 6.861,-113.41442 4.8211,-9.10646 16.5488,-20.71085 25.372,-25.10513 9.7271,-4.84451 16.1486,-6.17821 29.5,-6.12701 18.2091,0.0698 28.3174,4.03844 41.1714,16.16426 8.233,7.76661 12.6966,14.35595 16.3924,24.19949 l 2.816,7.5 0.06,98 0.06,98 -60.1211,0.25776 c -51.984,0.22287 -60.2868,0.0581 -61.3452,-1.2172 z M 903,849.55539 c -34.375,-34.32889 -62.21983,-62.23136 -61.8774,-62.0055 0.34242,0.22587 0.93548,-3.17625 1.3179,-7.56026 1.45528,-16.68305 6.36173,-27.58088 17.5595,-39.00184 7.16657,-7.30941 14.13124,-11.67292 24,-15.03648 9.34229,-3.18413 29.44363,-3.2371 39.38352,-0.10377 9.4766,2.98728 16.98529,7.79821 24.71701,15.83654 7.34687,7.63824 11.37069,13.95474 14.15446,22.21938 2.88328,8.5601 3.84453,34.41427 3.52583,94.83231 L 965.5,911.97154 Z m 609.5,-188.79538 c -14.3235,-1.60748 -25.1966,-6.5002 -34.8386,-15.67675 -11.7032,-11.13822 -16.9242,-21.02758 -19.2578,-36.47741 -1.555,-10.29495 -0.692,-19.24251 2.919,-30.26697 5.8053,-17.72325 23.4079,-33.94372 41.6774,-38.40494 3.0597,-0.74715 10.6099,-1.32317 17.0169,-1.29826 9.785,0.038 12.7435,0.4533 19.6741,2.76141 18.1828,6.05543 32.9992,21.15964 38.4454,39.19209 3.2326,10.70325 3.0198,28.24781 -0.4719,38.91082 -8.9233,27.24999 -36.1865,44.51214 -65.1645,41.26001 z m -742,-0.71226 c -19.56973,-2.56792 -38.13889,-17.50917 -46.09501,-37.0893 -5.34314,-13.14955 -5.32591,-33.66212 0.0395,-47.02406 6.68129,-16.63898 24.0107,-32.02937 40.55552,-36.01766 3.03859,-0.73249 10.64659,-1.29775 17,-1.26308 12.96503,0.0707 21.42569,2.34749 31.6822,8.52556 11.85291,7.13969 23.09996,22.40625 26.38958,35.82079 2.01231,8.20591 1.70212,28.15953 -0.5441,35 -4.48837,13.66856 -13.60424,25.87377 -24.94879,33.40386 -10.83136,7.18944 -28.60346,10.67456 -44.07889,8.64389 z m 246.5,0.0374 C 1004.8039,658.488 994.29209,653.49598 984.88082,644.83186 972.31257,633.26137 965.69441,617.62461 965.69441,599.5 c 0,-16.64932 5.21068,-30.10772 16.16735,-41.75781 8.10821,-8.62138 14.55432,-12.8757 24.81044,-16.37445 6.8932,-2.35155 9.3202,-2.66413 20.3278,-2.61805 20.1587,0.0844 30.791,4.3329 44.1593,17.64541 7.4468,7.4157 13.6516,18.38408 15.8991,28.1049 1.5578,6.73809 1.553,22.62451 -0.01,30 -4.1145,19.42706 -20.057,36.89401 -39.5494,43.33099 -6.7549,2.23069 -22.048,3.36093 -30.5,2.25412 z m 248.5,0.31922 c -14.6486,-1.9313 -24.5039,-6.64415 -34.4148,-16.45725 -3.7542,-3.7171 -8.4902,-9.49828 -10.5244,-12.84706 -11.2362,-18.4967 -10.9149,-46.67504 0.7321,-64.2221 8.2027,-12.35791 20.256,-21.87435 32.8237,-25.91541 8.5609,-2.75269 25.698,-3.25494 34.8834,-1.02235 18.2475,4.4352 35.8711,20.67238 41.6774,38.39872 5.085,15.5244 4.7213,31.46931 -1.0392,45.55478 -6.1358,15.00294 -20.3063,28.39161 -35.5298,33.56948 -6.7119,2.28284 -21.8204,3.83613 -28.6084,2.94119 z m -369,-184.47379 c -14.18316,-2.05063 -24.71741,-6.81592 -34.36258,-15.5443 -12.89383,-11.66825 -19.211,-26.14513 -19.3685,-44.38624 -0.16614,-19.24226 4.05841,-29.8005 17.22883,-43.0593 13.9399,-14.03343 24.86372,-18.47383 45.00225,-18.29287 18.38466,0.1652 29.84813,5.04878 43,18.31856 11.79398,11.89971 17.31152,25.33728 17.25922,42.03361 -0.063,20.09621 -8.53632,37.26932 -24.21558,49.07813 -7.15184,5.38639 -18.70048,10.31551 -26.54364,11.32918 -10.17709,1.31532 -12.12905,1.37206 -18,0.52323 z m 245,-0.42325 c -15.511,-2.41568 -25.184,-7.24869 -35.2418,-17.60824 -10.0463,-10.34768 -14.4973,-19.39128 -16.6407,-33.81089 -4.3842,-29.49495 12.5542,-57.25756 40.7084,-66.72242 7.1619,-2.40769 9.6601,-2.74218 20.1741,-2.70117 10.0018,0.039 13.2651,0.46138 19.5976,2.53651 17.4387,5.71462 32.4083,20.42381 38.4681,37.79892 2.1643,6.20551 2.6343,9.39859 2.7233,18.5 0.059,6.07402 -0.4837,13.46299 -1.2129,16.5 -3.1057,12.93614 -14.46,28.41403 -26.9025,36.67289 -6.3112,4.1891 -16.9019,8.00982 -24.608,8.87756 -2.7861,0.31373 -5.9656,0.71269 -7.0656,0.88659 -1.1,0.17389 -5.6,-0.24449 -10,-0.92975 z m 250,0.82881 c -17.359,-2.22497 -28.6633,-7.43343 -39.225,-18.07285 -11.9097,-11.99732 -17.6806,-26.39178 -17.5452,-43.76325 0.1382,-17.72808 5.087,-29.4911 17.6588,-41.97421 13.2921,-13.19829 24.4708,-17.83737 43.1114,-17.89087 13.0723,-0.0375 19.5828,1.36036 29,6.22657 8.0285,4.14864 20.6382,15.95478 24.8923,23.30608 11.0641,19.11902 10.5802,45.29956 -1.1799,63.83243 -4.9757,7.8414 -14.946,17.09102 -22.8898,21.23534 -8.9111,4.649 -25.6059,8.15392 -33.8226,7.10076 z M 252.3264,352.98446 c -2.29548,-0.46975 -5.60644,-1.59503 -7.35768,-2.50063 -5.10606,-2.64045 -11.9228,-10.14185 -14.67083,-16.14433 -2.21082,-4.82908 -2.48291,-6.55047 -2.08585,-13.1965 0.53907,-9.02305 2.67592,-13.757 8.95544,-19.83979 6.27852,-6.08182 11.75878,-8.25471 20.88618,-8.28125 6.12655,-0.0178 8.52317,0.46117 12.68533,2.53526 10.02634,4.99634 16.29257,14.58544 17.04345,26.08128 0.4052,6.20363 0.11573,7.90614 -2.21035,13 -6.27072,13.73221 -19.66702,21.12468 -33.24569,18.34596 z"
       id="path1" />
  </g>
</svg>
