<?xml version="1.0" encoding="UTF-8" standalone="no"?>
<!-- Created with Inkscape (http://www.inkscape.org/) -->

<svg
   version="1.1"
   id="svg1"
   width="2052"
   height="1623"
   viewBox="0 0 2052 1623"
   xmlns="http://www.w3.org/2000/svg"
   xmlns:svg="http://www.w3.org/2000/svg">
  <defs
     id="defs1" />
  <g
     id="g1">
    <path
       style="fill:#000000"
       d="m 420,1459.0034 c -20.04258,-1.1147 -29.67561,-3.29 -42.02248,-9.4894 -11.8787,-5.9644 -20.09272,-15.6719 -24.02025,-28.3878 -1.77979,-5.7623 -2.137,-11.162 -3.08087,-46.5721 -1.10625,-41.5023 -0.47519,-122.5368 1.15863,-148.7787 1.63004,-26.1812 8.04136,-49.5833 20.89662,-76.2754 18.71832,-38.8659 37.19154,-62.411 93.78393,-119.5328 l 21.33321,-21.5327 -8.77439,-6.1231 C 465.90837,992.984 457.89776,985.95041 450.23448,976.81333 431.61509,954.61305 419.69676,929.80357 414.775,903 412.704,891.72148 412.65078,888.49556 412.01168,735.5 411.36162,579.87814 411.3548,579.48005 409.19952,571.26832 403.10459,548.04625 392.45333,529.48558 375.48387,512.51613 354.98634,492.0186 330.41572,479.7147 304.53221,476.98663 299.5645,476.46305 266.3625,476.02686 230.75,476.01733 L 166,476 l 0.0224,-38.25 c 0.0316,-53.91662 1.57574,-104.88309 3.53469,-116.6658 4.19235,-25.21609 18.91316,-57.87913 36.31827,-80.5842 21.374,-27.88253 52.96878,-50.21606 87.03428,-61.52227 23.04026,-7.64697 37.27495,-9.11514 88.59036,-9.13723 39.89545,-0.0172 60.00661,1.19933 77.12382,4.66518 43.32945,8.77322 89.52058,33.09222 122.93939,64.72591 36.03236,34.10764 64.36411,86.90103 72.32391,134.76841 3.31418,19.93027 3.42856,26.06968 4.01983,215.76557 l 0.59305,190.26557 124,123.83234 c 131.03778,130.86062 131.13334,130.95042 155.5,146.17102 9.75054,6.0906 30.5812,16.6352 39.71631,20.1046 l 6.21631,2.3609 -70.88681,71 -70.8868,71 -0.50721,97.5 c -0.32058,61.625 -0.89283,99.5237 -1.55525,103 -1.562,8.1972 -7.19738,18.7517 -13.20074,24.7237 -8.20262,8.1597 -22.54802,14.8508 -36.96118,17.2396 -12.27026,2.0337 -41.28667,3.0081 -60.2122,2.022 -21.22493,-1.1059 -30.25255,-3.0228 -42.43798,-9.0108 -11.1362,-5.4725 -17.22331,-11.571 -22.47613,-22.5181 l -4.13563,-8.6189 -0.74368,-19.1688 c -0.40902,-10.5428 -1.07071,-84.1365 -1.47043,-163.5415 l -0.72677,-144.3728 -61.264,61.3728 -61.26401,61.3728 -0.69999,83.828 c -0.385,46.1054 -1.01288,92.0273 -1.39529,102.0487 l -0.69529,18.2207 -3.6851,7.7598 c -8.37938,17.6446 -24.92103,27.7873 -50.72813,31.1046 -13.69952,1.761 -41.0052,2.4867 -58,1.5416 z M 487.5,413.48908 c 10.41686,-2.19676 18.34372,-6.55745 27.39036,-15.06788 8.99615,-8.46293 14.23986,-15.77285 17.33994,-24.17247 1.99752,-5.41225 2.14583,-8.04027 2.53386,-44.89911 0.48535,-46.10218 -0.11264,-53.33956 -5.31173,-64.28737 -4.72318,-9.94568 -18.70655,-24.11874 -28.45329,-28.83929 -17.42387,-8.43874 -40.09386,-8.0018 -57.49914,1.10824 -7.89501,4.1323 -21.0365,17.27379 -25.1688,25.1688 -6.49275,12.4048 -6.61701,13.35609 -7.08754,54.26065 -0.57543,50.02335 0.4463,57.04402 10.31429,70.87276 9.21971,12.92027 25.77193,24.22386 38.44205,26.25227 8.60941,1.37831 19.85237,1.21617 27.5,-0.3966 z M 272.20044,350.72842 c 12.72241,-7.45583 18.97501,-21.63654 15.46559,-35.07554 -6.00112,-22.98082 -32.81305,-31.33853 -50.03657,-15.5972 -7.48486,6.84074 -9.97042,12.25459 -10.04472,21.87862 -0.0836,10.82112 1.97363,15.46348 10.35671,23.37166 7.93428,7.48479 11.24321,8.72658 22.17535,8.32206 6.08274,-0.22509 8.51644,-0.80908 12.08364,-2.8996 z M 1641.5,1459.0058 c -12.0795,-0.5126 -16.0992,-1.0682 -20.6458,-2.854 -16.3266,-6.4127 -29.4159,-19.9027 -35.9645,-37.0656 -3.0814,-8.0757 -3.7638,-30.3478 -3.8323,-125.0672 l -0.057,-79.4809 -61.239,-61.2691 -61.2389,-61.269 124.4889,0.035 124.489,0.035 7.1286,9.7147 c 25.4709,34.7113 41.5705,71.6617 46.8314,107.483 3.3925,23.0992 4.4688,156.7348 1.577,195.8119 -0.7822,10.571 -1.0916,11.725 -5.5531,20.7122 -6.5406,13.1753 -14.5792,21.1823 -27.91,27.8 l -9.7358,4.8331 -17.6691,0.7143 c -20.2648,0.8192 -39.1905,0.7774 -60.669,-0.1339 z"
       id="path1" />
  </g>
</svg>
