<?xml version="1.0" encoding="UTF-8" standalone="no"?>
<!-- Created with Inkscape (http://www.inkscape.org/) -->

<svg
   version="1.1"
   id="svg1"
   width="2052"
   height="1623"
   viewBox="0 0 2052 1623"
   xmlns="http://www.w3.org/2000/svg"
   xmlns:svg="http://www.w3.org/2000/svg">
  <defs
     id="defs1" />
  <g
     id="g1">
    <path
       style="fill:#000000"
       d="m 397,1582.9271 c -13.56861,-0.5751 -19.74651,-1.3089 -27.5,-3.2662 -47.02349,-11.8705 -85.25198,-38.8848 -111.53523,-78.8166 -12.65494,-19.2265 -22.46317,-42.4856 -26.96107,-63.935 -3.12592,-14.9068 -3.90822,-38.2438 -3.91905,-116.9093 -0.0103,-74.8621 0.90915,-104.84 3.83554,-125.0539 10.06522,-69.5247 40.10608,-137.275 81.91582,-184.7424 l 6.42665,-7.2963 -6.02141,-12.70369 C 297.85534,957.74316 290.62689,927.74341 288.97667,889.5 288.47828,877.95 288.05464,808.0875 288.03525,734.25 L 288,600 H 164.91376 41.827529 L 42.276255,465.75 C 42.72964,330.10599 42.87712,324.48536 46.559791,302.5 55.259451,250.56347 81.00098,195.76997 116.19124,154.28226 124.9248,143.9858 144.9654,124.18063 155.5,115.4353 189.97477,86.815954 236.25107,63.730658 279.92212,53.366346 307.81069,46.747641 345.35372,44.336654 403.5,45.43026 c 39.23081,0.737847 56.17979,2.242359 80.23596,7.122312 C 580.71156,72.224718 664.42354,128.91051 720.68019,213 c 3.86353,5.775 8.48398,13.0875 10.26766,16.25 1.78369,3.1625 3.39685,5.75 3.58481,5.75 0.18796,0 6.5575,-2.75715 14.15454,-6.127 69.41361,-30.7901 141.22804,-49.82054 217.3128,-57.58673 16.04667,-1.63792 31.3274,-1.78606 184,-1.78378 182.2423,0.003 176.403,-0.15833 220,6.06746 78.967,11.27675 163.4618,40.23638 233.8895,80.16304 79.8209,45.25182 151.0246,107.0357 206.8267,179.4648 66.9196,86.85925 113.4864,194.77046 131.315,304.30221 5.1913,31.89326 7.4224,65.55925 8.3771,126.40179 l 0.43,27.4018 9.8961,10.0982 c 15.3544,15.66785 23.2732,26.73023 32.1351,44.89164 14.3713,29.45262 20.4168,61.28297 18.1179,95.39307 -1.5922,23.6252 -6.928,43.1897 -17.949,65.8135 -9.5275,19.5579 -19.6394,34.0338 -34.4775,49.3572 -18.9345,19.5538 -38.589,33.0285 -62.3966,42.7779 -8.2106,3.3623 -10.6144,4.7695 -10.4473,6.116 0.1194,0.9619 0.7106,5.1239 1.3138,9.2489 0.677,4.6293 1.3019,36.3981 1.6326,83 0.602,84.848 -0.3328,119.3359 -3.6666,135.2643 -9.5638,45.694 -36.8346,86.74 -76.6397,115.3521 -10.8065,7.7678 -37.4779,21.2132 -50.2603,25.337 -18.5909,5.9976 -26.3329,6.8995 -65.1747,7.5927 -46.8435,0.8361 -78.7751,-0.5176 -92.4221,-3.9179 -22.3995,-5.5811 -40.8842,-13.7445 -60.1671,-26.5715 -27.67,-18.4062 -48.4735,-41.9181 -63.3137,-71.5567 -16.6294,-33.212 -19.8444,-52.2471 -19.9722,-118.25 L 1457,1339 H 1211.5 966 l -0.0495,24.75 c -0.12933,64.6198 -3.00137,82.7659 -18.08275,114.25 -24.66323,51.4873 -71.18181,88.9317 -126.86611,102.1189 -12.83357,3.0393 -61.3901,4.5467 -101.67184,3.1565 -29.65197,-1.0234 -31.30296,-1.186 -43.2159,-4.2544 -26.56152,-6.8416 -49.64486,-18.0547 -71.15927,-34.567 -3.04998,-2.3408 -6.11586,-4.9434 -6.81308,-5.7835 -1.10275,-1.3287 -2.26766,-0.7229 -8.95459,4.6568 -24.13018,19.4131 -52.44483,31.6275 -86.18693,37.1793 -17.92233,2.9489 -67.06254,4.0711 -106,2.4205 z"
       id="path1" />
  </g>
</svg>
