<?xml version="1.0" encoding="UTF-8" standalone="no"?>
<!-- Created with Inkscape (http://www.inkscape.org/) -->

<svg
   version="1.1"
   id="svg1"
   width="2052"
   height="1623"
   viewBox="0 0 2052 1623"
   xmlns="http://www.w3.org/2000/svg"
   xmlns:svg="http://www.w3.org/2000/svg">
  <defs
     id="defs1" />
  <g
     id="g1">
    <path
       style="fill:#000000"
       d="m 1723.8869,1091.6041 c -0.3371,-0.3649 -150.6371,-0.7627 -334,-0.8838 L 1056.5,1090.5 1044,1088.218 c -39.9665,-7.2962 -70.62877,-18.547 -103.13791,-37.8441 -26.41118,-15.6774 -25.49317,-14.8221 -158.835,-147.9835 l -123.4729,-123.30581 -0.0271,-73.20694 -0.0271,-73.20694 2.8033,-0.93646 c 2.32735,-0.77746 4.06761,-0.31994 10.25,2.69472 4.09568,1.99714 7.4467,4.06764 7.4467,4.6011 0,0.53346 0.8449,0.96993 1.87756,0.96993 1.03265,0 2.43775,0.675 3.12244,1.5 0.68469,0.825 1.67588,1.5 2.20265,1.5 1.32649,0 18.20009,11.63966 21.94522,15.13813 1.685,1.57403 3.45568,2.86187 3.93483,2.86187 0.47916,0 1.60579,1.12114 2.50363,2.49141 0.89784,1.37028 1.99343,2.26831 2.43465,1.99563 0.44121,-0.27269 3.36773,2.42637 6.50337,5.99791 3.13564,3.57154 6.01545,6.29947 6.39958,6.06206 0.71602,-0.44252 106.14788,104.74231 107.71025,107.45788 0.4762,0.82769 33.2606,33.67769 72.85423,73 39.59362,39.32231 71.13342,70.37011 70.08845,68.99511 -1.04497,-1.375 0.21083,-0.37485 2.79066,2.22255 2.57983,2.59739 4.79002,4.65482 4.91154,4.57205 0.57783,-0.39358 10.72094,7.51415 10.72094,8.35822 0,0.53087 0.37666,0.73242 0.83703,0.4479 0.46037,-0.28452 1.80187,0.15849 2.98117,0.98448 6.1296,4.29333 22.614,11.87786 34.8729,16.04511 11.7852,4.00624 41.4358,10.32107 48.9492,10.42494 3.7728,0.0521 45.1097,-0.39665 91.8597,-0.99734 54.0483,-0.69447 120.8676,-0.80045 183.5,-0.29104 54.175,0.44061 101.2,0.50284 104.5,0.13827 3.3,-0.36457 88.35,-0.58709 189,-0.49449 l 183,0.16837 7.8278,2.72955 c 20.0701,6.99841 35.574,23.66178 40.2915,43.30473 4.2944,17.8814 -0.064,41.1582 -9.6236,51.3913 -1.5029,1.6089 -2.553,3.1048 -2.3335,3.3243 0.8994,0.8993 -12.1231,11.8287 -17.9226,15.0419 -12.1334,6.7223 -11.2334,6.6345 -74.7396,7.297 -31.625,0.3299 -57.7759,0.3013 -58.1131,-0.064 z M 759,706.73707 c 0,-0.14462 -6.6375,-6.78212 -14.75,-14.75 L 729.5,677.5 743.98707,692.25 C 757.44515,705.95235 759,707.45273 759,706.73707 Z"
       id="path1" />
  </g>
</svg>
