<?xml version="1.0" encoding="UTF-8" standalone="no"?>
<!-- Created with Inkscape (http://www.inkscape.org/) -->

<svg
   version="1.1"
   id="svg1"
   width="2052"
   height="1623"
   viewBox="0 0 2052 1623"
   xmlns="http://www.w3.org/2000/svg"
   xmlns:svg="http://www.w3.org/2000/svg">
  <defs
     id="defs1" />
  <g
     id="g1">
    <path
       style="fill:#000000"
       d="m 1150.25,968.25014 -62.25,-0.26528 0.038,-83.24243 c 0.021,-45.78334 0.4526,-90.21743 0.9593,-98.74243 1.3413,-22.56705 4.5032,-31.0478 16.2622,-43.61825 7.2988,-7.80249 14.0725,-12.334 23.7405,-15.88206 6.8039,-2.49695 8.7531,-2.75243 21,-2.75243 12.2301,0 14.2055,0.25806 21,2.74335 8.9825,3.28561 17.8239,9.34797 24.8584,17.04485 6.3675,6.96704 9.5885,12.37062 12.9566,21.73631 l 2.5995,7.22823 0.5427,98.25046 c 0.2986,54.03776 0.5428,98.14122 0.5428,98.00771 0,-0.13351 -28.0125,-0.36213 -62.25,-0.50803 z M 1512.5,660.76001 c -14.3235,-1.60748 -25.1966,-6.5002 -34.8386,-15.67675 -11.7032,-11.13822 -16.9242,-21.02758 -19.2578,-36.47741 -1.555,-10.29495 -0.692,-19.24251 2.919,-30.26697 5.8053,-17.72325 23.4079,-33.94372 41.6774,-38.40494 3.0597,-0.74715 10.6099,-1.32317 17.0169,-1.29826 9.785,0.038 12.7435,0.4533 19.6741,2.76141 18.1828,6.05543 32.9992,21.15964 38.4454,39.19209 3.2326,10.70325 3.0198,28.24781 -0.4719,38.91082 -8.9233,27.24999 -36.1865,44.51214 -65.1645,41.26001 z m -616,-184.82947 c -14.18316,-2.05063 -24.71741,-6.81592 -34.36258,-15.5443 -12.89383,-11.66825 -19.211,-26.14513 -19.3685,-44.38624 -0.16614,-19.24226 4.05841,-29.8005 17.22883,-43.0593 13.9399,-14.03343 24.86372,-18.47383 45.00225,-18.29287 18.38466,0.1652 29.84813,5.04878 43,18.31856 11.79398,11.89971 17.31152,25.33728 17.25922,42.03361 -0.063,20.09621 -8.53632,37.26932 -24.21558,49.07813 -7.15184,5.38639 -18.70048,10.31551 -26.54364,11.32918 -10.17709,1.31532 -12.12905,1.37206 -18,0.52323 z M 252.3264,352.98446 c -2.29548,-0.46975 -5.60644,-1.59503 -7.35768,-2.50063 -5.10606,-2.64045 -11.9228,-10.14185 -14.67083,-16.14433 -2.21082,-4.82908 -2.48291,-6.55047 -2.08585,-13.1965 0.53907,-9.02305 2.67592,-13.757 8.95544,-19.83979 6.27852,-6.08182 11.75878,-8.25471 20.88618,-8.28125 6.12655,-0.0178 8.52317,0.46117 12.68533,2.53526 10.02634,4.99634 16.29257,14.58544 17.04345,26.08128 0.4052,6.20363 0.11573,7.90614 -2.21035,13 -6.27072,13.73221 -19.66702,21.12468 -33.24569,18.34596 z"
       id="path1" />
  </g>
</svg>
